<svg width="1440" height="864" viewBox="0 0 1440 864" fill="none" xmlns="http://www.w3.org/2000/svg">
<g opacity="0.5" filter="url(#filter0_f_1_5405)">
<ellipse cx="720" cy="432" rx="358" ry="132" fill="url(#paint0_linear_1_5405)"/>
<ellipse cx="720" cy="432" rx="358" ry="132" fill="url(#paint1_linear_1_5405)"/>
</g>
<circle cx="719.112" cy="432.112" r="431.112" stroke="#8F8FAE" stroke-opacity="0.46" stroke-linecap="round" stroke-dasharray="12 12"/>
<circle cx="719.112" cy="432.572" r="318.572" stroke="#8F8FAE" stroke-opacity="0.46" stroke-linecap="round" stroke-dasharray="12 12"/>
<circle cx="719.113" cy="432.926" r="180.926" stroke="#8F8FAE" stroke-opacity="0.46" stroke-linecap="round" stroke-dasharray="12 12"/>
<circle cx="719" cy="432" r="104.132" stroke="url(#paint2_angular_1_5405)" stroke-width="1.85208"/>
<circle cx="719" cy="432" r="104.132" stroke="url(#paint3_angular_1_5405)" stroke-width="3.30579"/>
<circle cx="719" cy="432" r="165" fill="#D2BCFD" fill-opacity="0.1"/>
<circle cx="718" cy="432" r="195" fill="#D2BCFD" fill-opacity="0.05"/>
<g filter="url(#filter1_dii_1_5405)">
<rect x="173" y="333" width="200" height="200" rx="100" fill="url(#paint4_linear_1_5405)" shape-rendering="crispEdges"/>
<rect x="173.5" y="333.5" width="199" height="199" rx="99.5" stroke="white" stroke-opacity="0.27" shape-rendering="crispEdges"/>
<g filter="url(#filter2_d_1_5405)">
<path d="M239.811 427.016C239.692 425.899 239.189 425.03 238.303 424.408C237.425 423.786 236.283 423.474 234.876 423.474C233.888 423.474 233.04 423.624 232.332 423.922C231.625 424.22 231.084 424.625 230.709 425.136C230.334 425.648 230.142 426.232 230.134 426.888C230.134 427.433 230.257 427.906 230.504 428.307C230.76 428.707 231.105 429.048 231.54 429.33C231.974 429.602 232.456 429.832 232.984 430.02C233.513 430.207 234.045 430.365 234.582 430.493L237.037 431.107C238.026 431.337 238.976 431.648 239.888 432.04C240.808 432.432 241.631 432.926 242.355 433.523C243.088 434.119 243.668 434.839 244.094 435.683C244.52 436.527 244.733 437.516 244.733 438.649C244.733 440.183 244.341 441.534 243.557 442.702C242.773 443.861 241.639 444.768 240.156 445.425C238.682 446.072 236.896 446.396 234.8 446.396C232.763 446.396 230.994 446.081 229.494 445.45C228.003 444.82 226.835 443.899 225.991 442.689C225.156 441.479 224.705 440.004 224.636 438.266H229.303C229.371 439.178 229.652 439.936 230.146 440.541C230.641 441.146 231.284 441.598 232.077 441.896C232.878 442.195 233.773 442.344 234.761 442.344C235.793 442.344 236.696 442.19 237.472 441.884C238.256 441.568 238.869 441.134 239.312 440.58C239.756 440.017 239.982 439.361 239.99 438.611C239.982 437.929 239.781 437.366 239.389 436.923C238.997 436.472 238.447 436.097 237.74 435.798C237.041 435.491 236.223 435.219 235.286 434.98L232.307 434.213C230.151 433.659 228.446 432.82 227.193 431.695C225.949 430.561 225.327 429.057 225.327 427.182C225.327 425.639 225.744 424.288 226.58 423.129C227.423 421.97 228.57 421.071 230.018 420.432C231.467 419.784 233.108 419.46 234.94 419.46C236.798 419.46 238.426 419.784 239.824 420.432C241.23 421.071 242.334 421.962 243.135 423.104C243.936 424.237 244.349 425.541 244.375 427.016H239.811ZM257.45 446.384C255.481 446.384 253.781 445.974 252.349 445.156C250.926 444.33 249.831 443.162 249.064 441.653C248.297 440.136 247.913 438.351 247.913 436.297C247.913 434.277 248.297 432.504 249.064 430.979C249.839 429.445 250.922 428.251 252.311 427.399C253.7 426.538 255.332 426.108 257.207 426.108C258.417 426.108 259.559 426.304 260.633 426.696C261.716 427.08 262.67 427.676 263.497 428.486C264.332 429.295 264.988 430.327 265.466 431.58C265.943 432.824 266.181 434.307 266.181 436.028V437.447H250.086V434.328H261.745C261.737 433.442 261.545 432.653 261.17 431.963C260.795 431.264 260.271 430.714 259.598 430.314C258.933 429.913 258.157 429.713 257.271 429.713C256.325 429.713 255.494 429.943 254.778 430.403C254.062 430.855 253.504 431.452 253.103 432.193C252.711 432.926 252.511 433.732 252.502 434.609V437.332C252.502 438.474 252.711 439.455 253.129 440.273C253.547 441.082 254.13 441.705 254.88 442.139C255.63 442.565 256.508 442.778 257.514 442.778C258.187 442.778 258.797 442.685 259.342 442.497C259.887 442.301 260.36 442.016 260.761 441.641C261.162 441.266 261.464 440.801 261.669 440.247L265.99 440.733C265.717 441.875 265.197 442.872 264.43 443.724C263.672 444.568 262.7 445.224 261.515 445.693C260.331 446.153 258.975 446.384 257.45 446.384ZM274.724 419.818V446H270.097V419.818H274.724ZM284.111 419.818V446H279.483V419.818H284.111ZM297.563 446.384C295.594 446.384 293.894 445.974 292.462 445.156C291.039 444.33 289.944 443.162 289.177 441.653C288.41 440.136 288.026 438.351 288.026 436.297C288.026 434.277 288.41 432.504 289.177 430.979C289.952 429.445 291.035 428.251 292.424 427.399C293.813 426.538 295.445 426.108 297.32 426.108C298.531 426.108 299.673 426.304 300.746 426.696C301.829 427.08 302.783 427.676 303.61 428.486C304.445 429.295 305.102 430.327 305.579 431.58C306.056 432.824 306.295 434.307 306.295 436.028V437.447H290.2V434.328H301.859C301.85 433.442 301.658 432.653 301.283 431.963C300.908 431.264 300.384 430.714 299.711 430.314C299.046 429.913 298.271 429.713 297.384 429.713C296.438 429.713 295.607 429.943 294.891 430.403C294.175 430.855 293.617 431.452 293.217 432.193C292.825 432.926 292.624 433.732 292.616 434.609V437.332C292.616 438.474 292.825 439.455 293.242 440.273C293.66 441.082 294.244 441.705 294.994 442.139C295.744 442.565 296.621 442.778 297.627 442.778C298.3 442.778 298.91 442.685 299.455 442.497C300.001 442.301 300.474 442.016 300.874 441.641C301.275 441.266 301.577 440.801 301.782 440.247L306.103 440.733C305.83 441.875 305.31 442.872 304.543 443.724C303.785 444.568 302.813 445.224 301.629 445.693C300.444 446.153 299.089 446.384 297.563 446.384ZM310.21 446V426.364H314.697V429.636H314.902C315.26 428.503 315.873 427.629 316.743 427.016C317.62 426.393 318.622 426.082 319.747 426.082C320.002 426.082 320.288 426.095 320.603 426.121C320.927 426.138 321.196 426.168 321.409 426.21V430.467C321.213 430.399 320.902 430.339 320.475 430.288C320.058 430.229 319.653 430.199 319.261 430.199C318.417 430.199 317.659 430.382 316.985 430.749C316.321 431.107 315.797 431.605 315.413 432.244C315.029 432.884 314.838 433.621 314.838 434.456V446H310.21Z" fill="white"/>
</g>
</g>
<path d="M373 432H587" stroke="white" stroke-opacity="0.16" stroke-width="2"/>
<path d="M518.667 432C518.667 430.527 517.473 429.333 516 429.333C514.528 429.333 513.334 430.527 513.334 432C513.334 433.473 514.528 434.667 516 434.667C517.473 434.667 518.667 433.473 518.667 432ZM516 431.5L444 431.5L444 432.5L516 432.5L516 431.5Z" fill="url(#paint5_linear_1_5405)"/>
<g filter="url(#filter3_bdi_1_5405)">
<rect x="585" y="300" width="268" height="265" rx="132.5" fill="url(#paint6_linear_1_5405)" shape-rendering="crispEdges"/>
<rect x="585" y="300" width="268" height="265" rx="132.5" fill="url(#paint7_linear_1_5405)" shape-rendering="crispEdges"/>
<rect x="585.5" y="300.5" width="267" height="264" rx="132" stroke="url(#paint8_linear_1_5405)" stroke-opacity="0.4" shape-rendering="crispEdges"/>
<g filter="url(#filter4_d_1_5405)">
<path d="M661.918 372.156H658.185C658.116 371.673 657.977 371.244 657.767 370.869C657.557 370.489 657.287 370.165 656.957 369.898C656.628 369.631 656.247 369.426 655.815 369.284C655.389 369.142 654.926 369.071 654.426 369.071C653.523 369.071 652.736 369.295 652.065 369.744C651.395 370.187 650.875 370.835 650.506 371.688C650.136 372.534 649.952 373.562 649.952 374.773C649.952 376.017 650.136 377.062 650.506 377.909C650.881 378.756 651.403 379.395 652.074 379.827C652.744 380.259 653.52 380.474 654.401 380.474C654.895 380.474 655.352 380.409 655.773 380.278C656.199 380.148 656.577 379.957 656.906 379.707C657.236 379.452 657.509 379.142 657.724 378.778C657.946 378.415 658.099 378 658.185 377.534L661.918 377.551C661.821 378.352 661.58 379.125 661.193 379.869C660.813 380.608 660.298 381.27 659.651 381.855C659.009 382.435 658.241 382.895 657.349 383.236C656.463 383.571 655.46 383.739 654.341 383.739C652.784 383.739 651.392 383.386 650.165 382.682C648.943 381.977 647.977 380.957 647.267 379.622C646.562 378.287 646.21 376.67 646.21 374.773C646.21 372.869 646.568 371.25 647.284 369.915C648 368.58 648.972 367.562 650.199 366.864C651.426 366.159 652.807 365.807 654.341 365.807C655.352 365.807 656.29 365.949 657.153 366.233C658.023 366.517 658.793 366.932 659.463 367.477C660.134 368.017 660.679 368.679 661.099 369.463C661.526 370.247 661.798 371.145 661.918 372.156ZM664.496 383.5V370.409H668.016V372.693H668.152C668.391 371.881 668.791 371.267 669.354 370.852C669.916 370.432 670.564 370.222 671.297 370.222C671.479 370.222 671.675 370.233 671.885 370.256C672.095 370.278 672.28 370.31 672.439 370.349V373.571C672.268 373.52 672.033 373.474 671.732 373.435C671.43 373.395 671.155 373.375 670.905 373.375C670.371 373.375 669.893 373.491 669.473 373.724C669.058 373.952 668.729 374.27 668.484 374.679C668.246 375.088 668.126 375.56 668.126 376.094V383.5H664.496ZM679.673 383.756C678.326 383.756 677.167 383.483 676.195 382.938C675.229 382.386 674.485 381.608 673.962 380.602C673.44 379.591 673.178 378.395 673.178 377.014C673.178 375.668 673.44 374.486 673.962 373.469C674.485 372.452 675.221 371.659 676.17 371.091C677.124 370.523 678.244 370.239 679.528 370.239C680.391 370.239 681.195 370.378 681.94 370.656C682.69 370.929 683.343 371.341 683.9 371.892C684.462 372.443 684.9 373.136 685.212 373.972C685.525 374.801 685.681 375.773 685.681 376.886V377.884H674.627V375.634H682.263C682.263 375.111 682.15 374.648 681.923 374.244C681.695 373.841 681.38 373.526 680.977 373.298C680.579 373.065 680.116 372.949 679.587 372.949C679.036 372.949 678.548 373.077 678.121 373.332C677.701 373.582 677.371 373.92 677.133 374.347C676.894 374.767 676.772 375.236 676.766 375.753V377.892C676.766 378.54 676.886 379.099 677.124 379.571C677.369 380.043 677.712 380.406 678.156 380.662C678.599 380.918 679.124 381.045 679.732 381.045C680.136 381.045 680.505 380.989 680.84 380.875C681.175 380.761 681.462 380.591 681.701 380.364C681.94 380.136 682.121 379.858 682.246 379.528L685.604 379.75C685.434 380.557 685.085 381.261 684.556 381.864C684.033 382.46 683.357 382.926 682.528 383.261C681.704 383.591 680.752 383.756 679.673 383.756ZM691.783 383.747C690.948 383.747 690.204 383.602 689.55 383.312C688.897 383.017 688.38 382.582 687.999 382.009C687.624 381.429 687.437 380.707 687.437 379.844C687.437 379.116 687.57 378.506 687.837 378.011C688.104 377.517 688.468 377.119 688.928 376.818C689.388 376.517 689.911 376.29 690.496 376.136C691.087 375.983 691.707 375.875 692.354 375.812C693.116 375.733 693.729 375.659 694.195 375.591C694.661 375.517 694.999 375.409 695.21 375.267C695.42 375.125 695.525 374.915 695.525 374.636V374.585C695.525 374.045 695.354 373.628 695.013 373.332C694.678 373.037 694.201 372.889 693.582 372.889C692.928 372.889 692.408 373.034 692.022 373.324C691.636 373.608 691.38 373.966 691.255 374.398L687.897 374.125C688.067 373.33 688.403 372.642 688.903 372.062C689.403 371.477 690.048 371.028 690.837 370.716C691.633 370.398 692.553 370.239 693.599 370.239C694.326 370.239 695.022 370.324 695.687 370.494C696.357 370.665 696.951 370.929 697.468 371.287C697.991 371.645 698.403 372.105 698.704 372.668C699.005 373.224 699.156 373.892 699.156 374.67V383.5H695.712V381.685H695.61C695.4 382.094 695.119 382.455 694.766 382.767C694.414 383.074 693.991 383.315 693.496 383.491C693.002 383.662 692.431 383.747 691.783 383.747ZM692.823 381.241C693.357 381.241 693.829 381.136 694.238 380.926C694.647 380.71 694.968 380.42 695.201 380.057C695.434 379.693 695.55 379.281 695.55 378.821V377.432C695.437 377.506 695.281 377.574 695.082 377.636C694.888 377.693 694.67 377.747 694.425 377.798C694.181 377.844 693.937 377.886 693.692 377.926C693.448 377.96 693.227 377.991 693.028 378.02C692.602 378.082 692.229 378.182 691.911 378.318C691.593 378.455 691.346 378.639 691.17 378.872C690.994 379.099 690.906 379.384 690.906 379.724C690.906 380.219 691.085 380.597 691.442 380.858C691.806 381.114 692.266 381.241 692.823 381.241ZM708.935 370.409V373.136H701.052V370.409H708.935ZM702.842 367.273H706.472V379.477C706.472 379.812 706.523 380.074 706.626 380.261C706.728 380.443 706.87 380.571 707.052 380.645C707.239 380.719 707.455 380.756 707.7 380.756C707.87 380.756 708.04 380.741 708.211 380.713C708.381 380.679 708.512 380.653 708.603 380.636L709.174 383.338C708.992 383.395 708.737 383.46 708.407 383.534C708.077 383.614 707.677 383.662 707.205 383.679C706.33 383.713 705.563 383.597 704.904 383.33C704.251 383.062 703.742 382.648 703.379 382.085C703.015 381.523 702.836 380.812 702.842 379.955V367.273ZM717.126 383.756C715.779 383.756 714.62 383.483 713.648 382.938C712.683 382.386 711.938 381.608 711.415 380.602C710.893 379.591 710.631 378.395 710.631 377.014C710.631 375.668 710.893 374.486 711.415 373.469C711.938 372.452 712.674 371.659 713.623 371.091C714.577 370.523 715.697 370.239 716.981 370.239C717.844 370.239 718.648 370.378 719.393 370.656C720.143 370.929 720.796 371.341 721.353 371.892C721.915 372.443 722.353 373.136 722.665 373.972C722.978 374.801 723.134 375.773 723.134 376.886V377.884H712.08V375.634H719.717C719.717 375.111 719.603 374.648 719.376 374.244C719.148 373.841 718.833 373.526 718.43 373.298C718.032 373.065 717.569 372.949 717.04 372.949C716.489 372.949 716.001 373.077 715.575 373.332C715.154 373.582 714.825 373.92 714.586 374.347C714.347 374.767 714.225 375.236 714.219 375.753V377.892C714.219 378.54 714.339 379.099 714.577 379.571C714.822 380.043 715.165 380.406 715.609 380.662C716.052 380.918 716.577 381.045 717.185 381.045C717.589 381.045 717.958 380.989 718.293 380.875C718.629 380.761 718.915 380.591 719.154 380.364C719.393 380.136 719.575 379.858 719.7 379.528L723.058 379.75C722.887 380.557 722.538 381.261 722.009 381.864C721.487 382.46 720.81 382.926 719.981 383.261C719.157 383.591 718.205 383.756 717.126 383.756ZM736.973 383.756C735.649 383.756 734.504 383.474 733.538 382.912C732.578 382.344 731.837 381.554 731.314 380.543C730.791 379.526 730.53 378.347 730.53 377.006C730.53 375.653 730.791 374.472 731.314 373.46C731.837 372.443 732.578 371.653 733.538 371.091C734.504 370.523 735.649 370.239 736.973 370.239C738.297 370.239 739.439 370.523 740.399 371.091C741.365 371.653 742.109 372.443 742.632 373.46C743.155 374.472 743.416 375.653 743.416 377.006C743.416 378.347 743.155 379.526 742.632 380.543C742.109 381.554 741.365 382.344 740.399 382.912C739.439 383.474 738.297 383.756 736.973 383.756ZM736.99 380.943C737.592 380.943 738.095 380.773 738.499 380.432C738.902 380.085 739.206 379.614 739.411 379.017C739.621 378.42 739.726 377.741 739.726 376.98C739.726 376.219 739.621 375.54 739.411 374.943C739.206 374.347 738.902 373.875 738.499 373.528C738.095 373.182 737.592 373.009 736.99 373.009C736.382 373.009 735.871 373.182 735.456 373.528C735.047 373.875 734.737 374.347 734.527 374.943C734.322 375.54 734.22 376.219 734.22 376.98C734.22 377.741 734.322 378.42 734.527 379.017C734.737 379.614 735.047 380.085 735.456 380.432C735.871 380.773 736.382 380.943 736.99 380.943ZM745.777 383.5V370.409H749.297V372.693H749.433C749.672 371.881 750.072 371.267 750.635 370.852C751.197 370.432 751.845 370.222 752.578 370.222C752.76 370.222 752.956 370.233 753.166 370.256C753.376 370.278 753.561 370.31 753.72 370.349V373.571C753.55 373.52 753.314 373.474 753.013 373.435C752.712 373.395 752.436 373.375 752.186 373.375C751.652 373.375 751.175 373.491 750.754 373.724C750.339 373.952 750.01 374.27 749.766 374.679C749.527 375.088 749.408 375.56 749.408 376.094V383.5H745.777ZM759.812 383.713C758.817 383.713 757.917 383.457 757.11 382.946C756.309 382.429 755.673 381.67 755.201 380.67C754.735 379.665 754.502 378.432 754.502 376.972C754.502 375.472 754.744 374.224 755.227 373.23C755.71 372.23 756.352 371.483 757.153 370.989C757.96 370.489 758.843 370.239 759.803 370.239C760.536 370.239 761.147 370.364 761.636 370.614C762.13 370.858 762.528 371.165 762.829 371.534C763.136 371.898 763.369 372.256 763.528 372.608H763.638V366.045H767.261V383.5H763.681V381.403H763.528C763.357 381.767 763.116 382.128 762.803 382.486C762.496 382.838 762.096 383.131 761.602 383.364C761.113 383.597 760.516 383.713 759.812 383.713ZM760.962 380.824C761.548 380.824 762.042 380.665 762.445 380.347C762.854 380.023 763.167 379.571 763.383 378.991C763.604 378.412 763.715 377.733 763.715 376.955C763.715 376.176 763.607 375.5 763.391 374.926C763.175 374.352 762.863 373.909 762.454 373.597C762.045 373.284 761.548 373.128 760.962 373.128C760.366 373.128 759.863 373.29 759.454 373.614C759.045 373.937 758.735 374.386 758.525 374.96C758.315 375.534 758.21 376.199 758.21 376.955C758.21 377.716 758.315 378.389 758.525 378.974C758.741 379.554 759.05 380.009 759.454 380.338C759.863 380.662 760.366 380.824 760.962 380.824ZM776.212 383.756C774.865 383.756 773.706 383.483 772.734 382.938C771.768 382.386 771.024 381.608 770.501 380.602C769.979 379.591 769.717 378.395 769.717 377.014C769.717 375.668 769.979 374.486 770.501 373.469C771.024 372.452 771.76 371.659 772.709 371.091C773.663 370.523 774.783 370.239 776.067 370.239C776.93 370.239 777.734 370.378 778.479 370.656C779.229 370.929 779.882 371.341 780.439 371.892C781.001 372.443 781.439 373.136 781.751 373.972C782.064 374.801 782.22 375.773 782.22 376.886V377.884H771.166V375.634H778.803C778.803 375.111 778.689 374.648 778.462 374.244C778.234 373.841 777.919 373.526 777.516 373.298C777.118 373.065 776.655 372.949 776.126 372.949C775.575 372.949 775.087 373.077 774.661 373.332C774.24 373.582 773.911 373.92 773.672 374.347C773.433 374.767 773.311 375.236 773.305 375.753V377.892C773.305 378.54 773.425 379.099 773.663 379.571C773.908 380.043 774.251 380.406 774.695 380.662C775.138 380.918 775.663 381.045 776.271 381.045C776.675 381.045 777.044 380.989 777.379 380.875C777.714 380.761 778.001 380.591 778.24 380.364C778.479 380.136 778.661 379.858 778.786 379.528L782.143 379.75C781.973 380.557 781.624 381.261 781.095 381.864C780.572 382.46 779.896 382.926 779.067 383.261C778.243 383.591 777.291 383.756 776.212 383.756ZM784.589 383.5V370.409H788.109V372.693H788.246C788.484 371.881 788.885 371.267 789.447 370.852C790.01 370.432 790.658 370.222 791.391 370.222C791.572 370.222 791.768 370.233 791.979 370.256C792.189 370.278 792.374 370.31 792.533 370.349V373.571C792.362 373.52 792.126 373.474 791.825 373.435C791.524 373.395 791.249 373.375 790.999 373.375C790.464 373.375 789.987 373.491 789.567 373.724C789.152 373.952 788.822 374.27 788.578 374.679C788.339 375.088 788.22 375.56 788.22 376.094V383.5H784.589Z" fill="white"/>
</g>
<g filter="url(#filter5_dii_1_5405)">
<g clip-path="url(#clip0_1_5405)">
<mask id="mask0_1_5405" style="mask-type:alpha" maskUnits="userSpaceOnUse" x="653" y="405" width="54" height="55">
<path d="M653.818 405.5H707V459.5H653.818V405.5Z" fill="white"/>
</mask>
<g mask="url(#mask0_1_5405)">
<path fill-rule="evenodd" clip-rule="evenodd" d="M680.409 405.5C695.095 405.5 707 417.588 707 432.5C707 447.411 695.095 459.5 680.409 459.5C665.723 459.5 653.818 447.411 653.818 432.5C653.818 417.588 665.723 405.5 680.409 405.5Z" fill="#2775CA"/>
</g>
<path fill-rule="evenodd" clip-rule="evenodd" d="M675.424 451.272C675.424 451.907 674.935 452.268 674.33 452.076C666.29 449.472 660.461 441.817 660.461 432.785C660.461 423.753 666.29 416.098 674.33 413.494C674.935 413.304 675.424 413.663 675.424 414.298V415.866C675.424 416.289 675.102 416.787 674.705 416.924C668.344 419.296 663.787 425.501 663.787 432.775C663.787 440.048 668.344 446.254 674.705 448.625C675.102 448.773 675.424 449.26 675.424 449.684V451.272Z" fill="white"/>
<path fill-rule="evenodd" clip-rule="evenodd" d="M682.067 445.438C682.067 445.904 681.692 446.285 681.233 446.285H679.575C679.116 446.285 678.741 445.904 678.741 445.438V442.77C675.112 442.273 673.34 440.208 672.86 437.402C672.776 436.925 673.151 436.491 673.631 436.491H675.529C675.925 436.491 676.259 436.777 676.343 437.179C676.697 438.852 677.646 440.133 680.555 440.133C682.703 440.133 684.226 438.916 684.226 437.095C684.226 435.273 683.329 434.586 680.18 434.056C675.529 433.421 673.329 431.991 673.329 428.285C673.329 425.426 675.457 423.203 678.751 422.726V420.111C678.751 419.645 679.127 419.264 679.585 419.264H681.244C681.702 419.264 682.078 419.645 682.078 420.111V422.801C684.758 423.289 686.457 424.833 687.01 427.396C687.114 427.883 686.739 428.338 686.249 428.338H684.497C684.122 428.338 683.809 428.083 683.694 427.713C683.225 426.083 682.078 425.385 680.086 425.385C677.886 425.385 676.749 426.464 676.749 427.978C676.749 429.577 677.396 430.381 680.775 430.88C685.341 431.515 687.699 432.838 687.699 436.789C687.699 439.785 685.509 442.209 682.078 442.77V445.438H682.067Z" fill="white"/>
<path fill-rule="evenodd" clip-rule="evenodd" d="M686.489 452.077C685.884 452.268 685.394 451.908 685.394 451.272V449.706C685.394 449.24 685.675 448.806 686.113 448.646C692.474 446.275 697.031 440.07 697.031 432.796C697.031 425.522 692.474 419.318 686.113 416.946C685.717 416.797 685.394 416.311 685.394 415.886V414.32C685.394 413.685 685.884 413.314 686.489 413.514C694.528 416.12 700.358 423.775 700.358 432.807C700.348 441.817 694.528 449.462 686.489 452.077Z" fill="white"/>
</g>
<rect x="654.318" y="406" width="52.1818" height="53" rx="26.0909" stroke="white" shape-rendering="crispEdges"/>
</g>
<g filter="url(#filter6_dii_1_5405)">
<g clip-path="url(#clip1_1_5405)">
<path d="M768.562 425.642C768.376 425.831 768.126 425.939 767.866 425.939H743.163C742.29 425.939 741.849 424.859 742.455 424.217L746.508 419.956C746.694 419.762 746.949 419.648 747.215 419.648H772.008C772.886 419.648 773.327 420.739 772.705 421.382L768.562 425.642ZM768.562 444.683C768.376 444.866 768.126 444.974 767.866 444.974H743.163C742.29 444.974 741.849 443.921 742.455 443.295L746.508 439.137C746.694 438.948 746.949 438.84 747.215 438.84H772.008C772.886 438.84 773.327 439.904 772.705 440.53L768.562 444.683ZM767.866 429.244C768.126 429.244 768.376 429.347 768.562 429.536L772.705 433.694C773.327 434.315 772.886 435.384 772.008 435.384H747.215C746.949 435.384 746.694 435.276 746.508 435.087L742.455 430.929C741.844 430.302 742.285 429.249 743.163 429.249L767.866 429.244Z" fill="#00FFAD"/>
<path d="M757.591 405.5C772.274 405.5 784.182 417.591 784.182 432.5C784.182 447.409 772.274 459.5 757.591 459.5C742.907 459.5 731 447.409 731 432.5C731 417.591 742.907 405.5 757.591 405.5Z" fill="black"/>
<path fill-rule="evenodd" clip-rule="evenodd" d="M743.296 429.924H767.903C768.211 429.924 768.504 430.048 768.717 430.27L772.61 434.249C773.328 434.984 772.817 436.237 771.796 436.237H747.189C746.88 436.237 746.588 436.112 746.375 435.891L742.482 431.911C741.759 431.177 742.275 429.924 743.296 429.924ZM742.482 424.648L746.375 420.668C746.593 420.447 746.886 420.323 747.189 420.323H771.791C772.812 420.323 773.328 421.576 772.604 422.31L768.717 426.29C768.499 426.511 768.206 426.635 767.903 426.635H743.296C742.275 426.635 741.759 425.383 742.482 424.648ZM772.604 441.512L768.711 445.492C768.493 445.714 768.201 445.838 767.898 445.838H743.296C742.275 445.838 741.759 444.585 742.482 443.851L746.375 439.871C746.593 439.649 746.886 439.525 747.189 439.525H771.791C772.812 439.525 773.328 440.778 772.604 441.512Z" fill="url(#paint9_linear_1_5405)"/>
</g>
</g>
<g filter="url(#filter7_d_1_5405)">
<path d="M641.918 487.156H638.185C638.116 486.673 637.977 486.244 637.767 485.869C637.557 485.489 637.287 485.165 636.957 484.898C636.628 484.631 636.247 484.426 635.815 484.284C635.389 484.142 634.926 484.071 634.426 484.071C633.523 484.071 632.736 484.295 632.065 484.744C631.395 485.187 630.875 485.835 630.506 486.688C630.136 487.534 629.952 488.562 629.952 489.773C629.952 491.017 630.136 492.062 630.506 492.909C630.881 493.756 631.403 494.395 632.074 494.827C632.744 495.259 633.52 495.474 634.401 495.474C634.895 495.474 635.352 495.409 635.773 495.278C636.199 495.148 636.577 494.957 636.906 494.707C637.236 494.452 637.509 494.142 637.724 493.778C637.946 493.415 638.099 493 638.185 492.534L641.918 492.551C641.821 493.352 641.58 494.125 641.193 494.869C640.813 495.608 640.298 496.27 639.651 496.855C639.009 497.435 638.241 497.895 637.349 498.236C636.463 498.571 635.46 498.739 634.341 498.739C632.784 498.739 631.392 498.386 630.165 497.682C628.943 496.977 627.977 495.957 627.267 494.622C626.562 493.287 626.21 491.67 626.21 489.773C626.21 487.869 626.568 486.25 627.284 484.915C628 483.58 628.972 482.562 630.199 481.864C631.426 481.159 632.807 480.807 634.341 480.807C635.352 480.807 636.29 480.949 637.153 481.233C638.023 481.517 638.793 481.932 639.463 482.477C640.134 483.017 640.679 483.679 641.099 484.463C641.526 485.247 641.798 486.145 641.918 487.156ZM650.411 498.756C649.087 498.756 647.942 498.474 646.976 497.912C646.016 497.344 645.274 496.554 644.751 495.543C644.229 494.526 643.967 493.347 643.967 492.006C643.967 490.653 644.229 489.472 644.751 488.46C645.274 487.443 646.016 486.653 646.976 486.091C647.942 485.523 649.087 485.239 650.411 485.239C651.734 485.239 652.876 485.523 653.837 486.091C654.803 486.653 655.547 487.443 656.07 488.46C656.592 489.472 656.854 490.653 656.854 492.006C656.854 493.347 656.592 494.526 656.07 495.543C655.547 496.554 654.803 497.344 653.837 497.912C652.876 498.474 651.734 498.756 650.411 498.756ZM650.428 495.943C651.03 495.943 651.533 495.773 651.936 495.432C652.339 495.085 652.643 494.614 652.848 494.017C653.058 493.42 653.163 492.741 653.163 491.98C653.163 491.219 653.058 490.54 652.848 489.943C652.643 489.347 652.339 488.875 651.936 488.528C651.533 488.182 651.03 488.009 650.428 488.009C649.82 488.009 649.308 488.182 648.893 488.528C648.484 488.875 648.175 489.347 647.964 489.943C647.76 490.54 647.658 491.219 647.658 491.98C647.658 492.741 647.76 493.42 647.964 494.017C648.175 494.614 648.484 495.085 648.893 495.432C649.308 495.773 649.82 495.943 650.428 495.943ZM662.845 481.045V498.5H659.214V481.045H662.845ZM669.384 481.045V498.5H665.754V481.045H669.384ZM676.026 498.747C675.19 498.747 674.446 498.602 673.793 498.312C673.139 498.017 672.622 497.582 672.241 497.009C671.866 496.429 671.679 495.707 671.679 494.844C671.679 494.116 671.813 493.506 672.08 493.011C672.347 492.517 672.71 492.119 673.17 491.818C673.631 491.517 674.153 491.29 674.739 491.136C675.33 490.983 675.949 490.875 676.597 490.812C677.358 490.733 677.972 490.659 678.438 490.591C678.903 490.517 679.241 490.409 679.452 490.267C679.662 490.125 679.767 489.915 679.767 489.636V489.585C679.767 489.045 679.597 488.628 679.256 488.332C678.92 488.037 678.443 487.889 677.824 487.889C677.17 487.889 676.651 488.034 676.264 488.324C675.878 488.608 675.622 488.966 675.497 489.398L672.139 489.125C672.31 488.33 672.645 487.642 673.145 487.062C673.645 486.477 674.29 486.028 675.08 485.716C675.875 485.398 676.795 485.239 677.841 485.239C678.568 485.239 679.264 485.324 679.929 485.494C680.599 485.665 681.193 485.929 681.71 486.287C682.233 486.645 682.645 487.105 682.946 487.668C683.247 488.224 683.398 488.892 683.398 489.67V498.5H679.955V496.685H679.852C679.642 497.094 679.361 497.455 679.009 497.767C678.656 498.074 678.233 498.315 677.739 498.491C677.244 498.662 676.673 498.747 676.026 498.747ZM677.065 496.241C677.599 496.241 678.071 496.136 678.48 495.926C678.889 495.71 679.21 495.42 679.443 495.057C679.676 494.693 679.793 494.281 679.793 493.821V492.432C679.679 492.506 679.523 492.574 679.324 492.636C679.131 492.693 678.912 492.747 678.668 492.798C678.423 492.844 678.179 492.886 677.935 492.926C677.69 492.96 677.469 492.991 677.27 493.02C676.844 493.082 676.472 493.182 676.153 493.318C675.835 493.455 675.588 493.639 675.412 493.872C675.236 494.099 675.148 494.384 675.148 494.724C675.148 495.219 675.327 495.597 675.685 495.858C676.048 496.114 676.509 496.241 677.065 496.241ZM693.178 485.409V488.136H685.294V485.409H693.178ZM687.084 482.273H690.714V494.477C690.714 494.812 690.766 495.074 690.868 495.261C690.97 495.443 691.112 495.571 691.294 495.645C691.482 495.719 691.697 495.756 691.942 495.756C692.112 495.756 692.283 495.741 692.453 495.713C692.624 495.679 692.754 495.653 692.845 495.636L693.416 498.338C693.234 498.395 692.979 498.46 692.649 498.534C692.32 498.614 691.919 498.662 691.447 498.679C690.572 498.713 689.805 498.597 689.146 498.33C688.493 498.062 687.984 497.648 687.621 497.085C687.257 496.523 687.078 495.812 687.084 494.955V482.273ZM701.368 498.756C700.021 498.756 698.862 498.483 697.891 497.938C696.925 497.386 696.18 496.608 695.658 495.602C695.135 494.591 694.874 493.395 694.874 492.014C694.874 490.668 695.135 489.486 695.658 488.469C696.18 487.452 696.916 486.659 697.865 486.091C698.82 485.523 699.939 485.239 701.223 485.239C702.087 485.239 702.891 485.378 703.635 485.656C704.385 485.929 705.038 486.341 705.595 486.892C706.158 487.443 706.595 488.136 706.908 488.972C707.22 489.801 707.376 490.773 707.376 491.886V492.884H696.322V490.634H703.959C703.959 490.111 703.845 489.648 703.618 489.244C703.391 488.841 703.075 488.526 702.672 488.298C702.274 488.065 701.811 487.949 701.283 487.949C700.732 487.949 700.243 488.077 699.817 488.332C699.396 488.582 699.067 488.92 698.828 489.347C698.589 489.767 698.467 490.236 698.462 490.753V492.892C698.462 493.54 698.581 494.099 698.82 494.571C699.064 495.043 699.408 495.406 699.851 495.662C700.294 495.918 700.82 496.045 701.428 496.045C701.831 496.045 702.2 495.989 702.536 495.875C702.871 495.761 703.158 495.591 703.396 495.364C703.635 495.136 703.817 494.858 703.942 494.528L707.3 494.75C707.129 495.557 706.78 496.261 706.251 496.864C705.729 497.46 705.053 497.926 704.223 498.261C703.399 498.591 702.447 498.756 701.368 498.756ZM709.746 498.5V485.409H713.266V487.693H713.402C713.641 486.881 714.041 486.267 714.604 485.852C715.166 485.432 715.814 485.222 716.547 485.222C716.729 485.222 716.925 485.233 717.135 485.256C717.345 485.278 717.53 485.31 717.689 485.349V488.571C717.518 488.52 717.283 488.474 716.982 488.435C716.68 488.395 716.405 488.375 716.155 488.375C715.621 488.375 715.143 488.491 714.723 488.724C714.308 488.952 713.979 489.27 713.734 489.679C713.496 490.088 713.376 490.56 713.376 491.094V498.5H709.746ZM722.924 498.747C722.089 498.747 721.344 498.602 720.691 498.312C720.038 498.017 719.521 497.582 719.14 497.009C718.765 496.429 718.577 495.707 718.577 494.844C718.577 494.116 718.711 493.506 718.978 493.011C719.245 492.517 719.609 492.119 720.069 491.818C720.529 491.517 721.052 491.29 721.637 491.136C722.228 490.983 722.847 490.875 723.495 490.812C724.256 490.733 724.87 490.659 725.336 490.591C725.802 490.517 726.14 490.409 726.35 490.267C726.56 490.125 726.665 489.915 726.665 489.636V489.585C726.665 489.045 726.495 488.628 726.154 488.332C725.819 488.037 725.342 487.889 724.722 487.889C724.069 487.889 723.549 488.034 723.163 488.324C722.776 488.608 722.521 488.966 722.396 489.398L719.038 489.125C719.208 488.33 719.543 487.642 720.043 487.062C720.543 486.477 721.188 486.028 721.978 485.716C722.773 485.398 723.694 485.239 724.739 485.239C725.467 485.239 726.163 485.324 726.827 485.494C727.498 485.665 728.092 485.929 728.609 486.287C729.131 486.645 729.543 487.105 729.844 487.668C730.146 488.224 730.296 488.892 730.296 489.67V498.5H726.853V496.685H726.751C726.54 497.094 726.259 497.455 725.907 497.767C725.555 498.074 725.131 498.315 724.637 498.491C724.143 498.662 723.572 498.747 722.924 498.747ZM723.964 496.241C724.498 496.241 724.969 496.136 725.379 495.926C725.788 495.71 726.109 495.42 726.342 495.057C726.575 494.693 726.691 494.281 726.691 493.821V492.432C726.577 492.506 726.421 492.574 726.222 492.636C726.029 492.693 725.81 492.747 725.566 492.798C725.322 492.844 725.077 492.886 724.833 492.926C724.589 492.96 724.367 492.991 724.168 493.02C723.742 493.082 723.37 493.182 723.052 493.318C722.734 493.455 722.487 493.639 722.31 493.872C722.134 494.099 722.046 494.384 722.046 494.724C722.046 495.219 722.225 495.597 722.583 495.858C722.947 496.114 723.407 496.241 723.964 496.241ZM736.744 481.045V498.5H733.113V481.045H736.744ZM748.283 498.5H744.329L750.354 481.045H755.11L761.127 498.5H757.173L752.8 485.034H752.664L748.283 498.5ZM748.036 491.639H757.377V494.52H748.036V491.639ZM773.747 489.142L770.423 489.347C770.366 489.062 770.244 488.807 770.057 488.58C769.869 488.347 769.622 488.162 769.315 488.026C769.014 487.884 768.653 487.812 768.233 487.812C767.67 487.812 767.196 487.932 766.81 488.17C766.423 488.403 766.23 488.716 766.23 489.108C766.23 489.42 766.355 489.685 766.605 489.901C766.855 490.116 767.284 490.29 767.892 490.42L770.261 490.898C771.534 491.159 772.483 491.58 773.108 492.159C773.733 492.739 774.045 493.5 774.045 494.443C774.045 495.301 773.793 496.054 773.287 496.702C772.787 497.349 772.099 497.855 771.224 498.219C770.355 498.577 769.352 498.756 768.216 498.756C766.483 498.756 765.102 498.395 764.074 497.673C763.051 496.946 762.452 495.957 762.276 494.707L765.847 494.52C765.955 495.048 766.216 495.452 766.631 495.73C767.045 496.003 767.577 496.139 768.224 496.139C768.861 496.139 769.372 496.017 769.759 495.773C770.151 495.523 770.349 495.202 770.355 494.81C770.349 494.48 770.21 494.21 769.938 494C769.665 493.784 769.244 493.619 768.676 493.506L766.409 493.054C765.131 492.798 764.179 492.355 763.554 491.724C762.935 491.094 762.625 490.29 762.625 489.312C762.625 488.472 762.852 487.747 763.307 487.139C763.767 486.531 764.412 486.062 765.241 485.733C766.077 485.403 767.054 485.239 768.173 485.239C769.827 485.239 771.128 485.588 772.077 486.287C773.031 486.986 773.588 487.937 773.747 489.142ZM787.224 489.142L783.9 489.347C783.843 489.062 783.721 488.807 783.533 488.58C783.346 488.347 783.099 488.162 782.792 488.026C782.491 487.884 782.13 487.812 781.71 487.812C781.147 487.812 780.673 487.932 780.286 488.17C779.9 488.403 779.707 488.716 779.707 489.108C779.707 489.42 779.832 489.685 780.082 489.901C780.332 490.116 780.761 490.29 781.369 490.42L783.738 490.898C785.011 491.159 785.96 491.58 786.585 492.159C787.21 492.739 787.522 493.5 787.522 494.443C787.522 495.301 787.269 496.054 786.763 496.702C786.263 497.349 785.576 497.855 784.701 498.219C783.832 498.577 782.829 498.756 781.692 498.756C779.96 498.756 778.579 498.395 777.55 497.673C776.528 496.946 775.928 495.957 775.752 494.707L779.323 494.52C779.431 495.048 779.692 495.452 780.107 495.73C780.522 496.003 781.053 496.139 781.701 496.139C782.337 496.139 782.849 496.017 783.235 495.773C783.627 495.523 783.826 495.202 783.832 494.81C783.826 494.48 783.687 494.21 783.414 494C783.141 493.784 782.721 493.619 782.153 493.506L779.886 493.054C778.607 492.798 777.656 492.355 777.031 491.724C776.411 491.094 776.102 490.29 776.102 489.312C776.102 488.472 776.329 487.747 776.783 487.139C777.244 486.531 777.888 486.062 778.718 485.733C779.553 485.403 780.531 485.239 781.65 485.239C783.303 485.239 784.604 485.588 785.553 486.287C786.508 486.986 787.065 487.937 787.224 489.142ZM795.774 498.756C794.428 498.756 793.268 498.483 792.297 497.938C791.331 497.386 790.587 496.608 790.064 495.602C789.541 494.591 789.28 493.395 789.28 492.014C789.28 490.668 789.541 489.486 790.064 488.469C790.587 487.452 791.322 486.659 792.271 486.091C793.226 485.523 794.345 485.239 795.629 485.239C796.493 485.239 797.297 485.378 798.041 485.656C798.791 485.929 799.445 486.341 800.001 486.892C800.564 487.443 801.001 488.136 801.314 488.972C801.626 489.801 801.783 490.773 801.783 491.886V492.884H790.729V490.634H798.365C798.365 490.111 798.251 489.648 798.024 489.244C797.797 488.841 797.482 488.526 797.078 488.298C796.68 488.065 796.217 487.949 795.689 487.949C795.138 487.949 794.649 488.077 794.223 488.332C793.803 488.582 793.473 488.92 793.234 489.347C792.996 489.767 792.874 490.236 792.868 490.753V492.892C792.868 493.54 792.987 494.099 793.226 494.571C793.47 495.043 793.814 495.406 794.257 495.662C794.7 495.918 795.226 496.045 795.834 496.045C796.237 496.045 796.607 495.989 796.942 495.875C797.277 495.761 797.564 495.591 797.803 495.364C798.041 495.136 798.223 494.858 798.348 494.528L801.706 494.75C801.536 495.557 801.186 496.261 800.658 496.864C800.135 497.46 799.459 497.926 798.629 498.261C797.805 498.591 796.854 498.756 795.774 498.756ZM811.115 485.409V488.136H803.232V485.409H811.115ZM805.021 482.273H808.652V494.477C808.652 494.812 808.703 495.074 808.805 495.261C808.908 495.443 809.05 495.571 809.232 495.645C809.419 495.719 809.635 495.756 809.879 495.756C810.05 495.756 810.22 495.741 810.391 495.713C810.561 495.679 810.692 495.653 810.783 495.636L811.354 498.338C811.172 498.395 810.916 498.46 810.587 498.534C810.257 498.614 809.857 498.662 809.385 498.679C808.51 498.713 807.743 498.597 807.084 498.33C806.43 498.062 805.922 497.648 805.558 497.085C805.195 496.523 805.016 495.812 805.021 494.955V482.273Z" fill="white"/>
</g>
</g>
<path d="M852 432H1066" stroke="white" stroke-opacity="0.16" stroke-width="2"/>
<path d="M920.333 432C920.333 433.473 921.527 434.667 923 434.667C924.472 434.667 925.666 433.473 925.666 432C925.666 430.527 924.472 429.333 923 429.333C921.527 429.333 920.333 430.527 920.333 432ZM923 432.5L995 432.5L995 431.5L923 431.5L923 432.5Z" fill="url(#paint10_linear_1_5405)"/>
<g filter="url(#filter8_dii_1_5405)">
<rect x="1066" y="333" width="200" height="200" rx="100" fill="url(#paint11_linear_1_5405)" shape-rendering="crispEdges"/>
<rect x="1066.5" y="333.5" width="199" height="199" rx="99.5" stroke="white" stroke-opacity="0.27" shape-rendering="crispEdges"/>
<g filter="url(#filter9_d_1_5405)">
<path d="M1117.58 446V419.818H1127.61C1129.5 419.818 1131.07 420.116 1132.32 420.713C1133.58 421.301 1134.53 422.107 1135.15 423.129C1135.78 424.152 1136.09 425.311 1136.09 426.607C1136.09 427.672 1135.89 428.584 1135.48 429.342C1135.07 430.092 1134.52 430.702 1133.83 431.17C1133.14 431.639 1132.37 431.976 1131.52 432.18V432.436C1132.45 432.487 1133.34 432.773 1134.19 433.293C1135.05 433.804 1135.75 434.528 1136.3 435.466C1136.84 436.403 1137.12 437.537 1137.12 438.866C1137.12 440.222 1136.79 441.44 1136.13 442.523C1135.48 443.597 1134.49 444.445 1133.17 445.067C1131.85 445.689 1130.18 446 1128.18 446H1117.58ZM1122.33 442.037H1127.43C1129.15 442.037 1130.39 441.709 1131.15 441.053C1131.91 440.388 1132.3 439.536 1132.3 438.496C1132.3 437.72 1132.11 437.021 1131.72 436.399C1131.34 435.768 1130.79 435.274 1130.09 434.916C1129.38 434.55 1128.53 434.366 1127.55 434.366H1122.33V442.037ZM1122.33 430.953H1127.02C1127.84 430.953 1128.57 430.804 1129.23 430.506C1129.88 430.199 1130.4 429.768 1130.78 429.214C1131.16 428.652 1131.35 427.987 1131.35 427.22C1131.35 426.206 1130.99 425.371 1130.28 424.714C1129.57 424.058 1128.52 423.73 1127.12 423.73H1122.33V430.953ZM1153.55 437.741V426.364H1158.18V446H1153.69V442.51H1153.49C1153.05 443.609 1152.32 444.509 1151.3 445.207C1150.3 445.906 1149.06 446.256 1147.58 446.256C1146.3 446.256 1145.16 445.97 1144.17 445.399C1143.19 444.82 1142.42 443.98 1141.87 442.881C1141.31 441.773 1141.04 440.435 1141.04 438.866V426.364H1145.67V438.151C1145.67 439.395 1146.01 440.384 1146.69 441.116C1147.37 441.849 1148.27 442.216 1149.37 442.216C1150.06 442.216 1150.72 442.05 1151.35 441.717C1151.99 441.385 1152.52 440.891 1152.93 440.234C1153.34 439.57 1153.55 438.739 1153.55 437.741ZM1165.82 453.364C1165.19 453.364 1164.6 453.313 1164.07 453.21C1163.54 453.116 1163.12 453.006 1162.8 452.878L1163.87 449.273C1164.55 449.469 1165.15 449.563 1165.68 449.554C1166.2 449.545 1166.67 449.379 1167.07 449.055C1167.48 448.74 1167.82 448.212 1168.11 447.47L1168.5 446.409L1161.38 426.364H1166.29L1170.82 441.193H1171.02L1175.56 426.364H1180.48L1172.62 448.378C1172.25 449.418 1171.77 450.308 1171.16 451.05C1170.56 451.8 1169.81 452.371 1168.94 452.763C1168.07 453.163 1167.03 453.364 1165.82 453.364ZM1191.71 446.384C1189.74 446.384 1188.04 445.974 1186.61 445.156C1185.18 444.33 1184.09 443.162 1183.32 441.653C1182.55 440.136 1182.17 438.351 1182.17 436.297C1182.17 434.277 1182.55 432.504 1183.32 430.979C1184.1 429.445 1185.18 428.251 1186.57 427.399C1187.96 426.538 1189.59 426.108 1191.46 426.108C1192.68 426.108 1193.82 426.304 1194.89 426.696C1195.97 427.08 1196.93 427.676 1197.75 428.486C1198.59 429.295 1199.25 430.327 1199.72 431.58C1200.2 432.824 1200.44 434.307 1200.44 436.028V437.447H1184.34V434.328H1196C1195.99 433.442 1195.8 432.653 1195.43 431.963C1195.05 431.264 1194.53 430.714 1193.86 430.314C1193.19 429.913 1192.42 429.713 1191.53 429.713C1190.58 429.713 1189.75 429.943 1189.04 430.403C1188.32 430.855 1187.76 431.452 1187.36 432.193C1186.97 432.926 1186.77 433.732 1186.76 434.609V437.332C1186.76 438.474 1186.97 439.455 1187.39 440.273C1187.8 441.082 1188.39 441.705 1189.14 442.139C1189.89 442.565 1190.77 442.778 1191.77 442.778C1192.44 442.778 1193.05 442.685 1193.6 442.497C1194.15 442.301 1194.62 442.016 1195.02 441.641C1195.42 441.266 1195.72 440.801 1195.93 440.247L1200.25 440.733C1199.97 441.875 1199.45 442.872 1198.69 443.724C1197.93 444.568 1196.96 445.224 1195.77 445.693C1194.59 446.153 1193.23 446.384 1191.71 446.384ZM1204.35 446V426.364H1208.84V429.636H1209.05C1209.4 428.503 1210.02 427.629 1210.89 427.016C1211.76 426.393 1212.77 426.082 1213.89 426.082C1214.15 426.082 1214.43 426.095 1214.75 426.121C1215.07 426.138 1215.34 426.168 1215.55 426.21V430.467C1215.36 430.399 1215.05 430.339 1214.62 430.288C1214.2 430.229 1213.8 430.199 1213.41 430.199C1212.56 430.199 1211.8 430.382 1211.13 430.749C1210.47 431.107 1209.94 431.605 1209.56 432.244C1209.17 432.884 1208.98 433.621 1208.98 434.456V446H1204.35Z" fill="url(#paint12_linear_1_5405)"/>
<path d="M1117.58 446V419.818H1127.61C1129.5 419.818 1131.07 420.116 1132.32 420.713C1133.58 421.301 1134.53 422.107 1135.15 423.129C1135.78 424.152 1136.09 425.311 1136.09 426.607C1136.09 427.672 1135.89 428.584 1135.48 429.342C1135.07 430.092 1134.52 430.702 1133.83 431.17C1133.14 431.639 1132.37 431.976 1131.52 432.18V432.436C1132.45 432.487 1133.34 432.773 1134.19 433.293C1135.05 433.804 1135.75 434.528 1136.3 435.466C1136.84 436.403 1137.12 437.537 1137.12 438.866C1137.12 440.222 1136.79 441.44 1136.13 442.523C1135.48 443.597 1134.49 444.445 1133.17 445.067C1131.85 445.689 1130.18 446 1128.18 446H1117.58ZM1122.33 442.037H1127.43C1129.15 442.037 1130.39 441.709 1131.15 441.053C1131.91 440.388 1132.3 439.536 1132.3 438.496C1132.3 437.72 1132.11 437.021 1131.72 436.399C1131.34 435.768 1130.79 435.274 1130.09 434.916C1129.38 434.55 1128.53 434.366 1127.55 434.366H1122.33V442.037ZM1122.33 430.953H1127.02C1127.84 430.953 1128.57 430.804 1129.23 430.506C1129.88 430.199 1130.4 429.768 1130.78 429.214C1131.16 428.652 1131.35 427.987 1131.35 427.22C1131.35 426.206 1130.99 425.371 1130.28 424.714C1129.57 424.058 1128.52 423.73 1127.12 423.73H1122.33V430.953ZM1153.55 437.741V426.364H1158.18V446H1153.69V442.51H1153.49C1153.05 443.609 1152.32 444.509 1151.3 445.207C1150.3 445.906 1149.06 446.256 1147.58 446.256C1146.3 446.256 1145.16 445.97 1144.17 445.399C1143.19 444.82 1142.42 443.98 1141.87 442.881C1141.31 441.773 1141.04 440.435 1141.04 438.866V426.364H1145.67V438.151C1145.67 439.395 1146.01 440.384 1146.69 441.116C1147.37 441.849 1148.27 442.216 1149.37 442.216C1150.06 442.216 1150.72 442.05 1151.35 441.717C1151.99 441.385 1152.52 440.891 1152.93 440.234C1153.34 439.57 1153.55 438.739 1153.55 437.741ZM1165.82 453.364C1165.19 453.364 1164.6 453.313 1164.07 453.21C1163.54 453.116 1163.12 453.006 1162.8 452.878L1163.87 449.273C1164.55 449.469 1165.15 449.563 1165.68 449.554C1166.2 449.545 1166.67 449.379 1167.07 449.055C1167.48 448.74 1167.82 448.212 1168.11 447.47L1168.5 446.409L1161.38 426.364H1166.29L1170.82 441.193H1171.02L1175.56 426.364H1180.48L1172.62 448.378C1172.25 449.418 1171.77 450.308 1171.16 451.05C1170.56 451.8 1169.81 452.371 1168.94 452.763C1168.07 453.163 1167.03 453.364 1165.82 453.364ZM1191.71 446.384C1189.74 446.384 1188.04 445.974 1186.61 445.156C1185.18 444.33 1184.09 443.162 1183.32 441.653C1182.55 440.136 1182.17 438.351 1182.17 436.297C1182.17 434.277 1182.55 432.504 1183.32 430.979C1184.1 429.445 1185.18 428.251 1186.57 427.399C1187.96 426.538 1189.59 426.108 1191.46 426.108C1192.68 426.108 1193.82 426.304 1194.89 426.696C1195.97 427.08 1196.93 427.676 1197.75 428.486C1198.59 429.295 1199.25 430.327 1199.72 431.58C1200.2 432.824 1200.44 434.307 1200.44 436.028V437.447H1184.34V434.328H1196C1195.99 433.442 1195.8 432.653 1195.43 431.963C1195.05 431.264 1194.53 430.714 1193.86 430.314C1193.19 429.913 1192.42 429.713 1191.53 429.713C1190.58 429.713 1189.75 429.943 1189.04 430.403C1188.32 430.855 1187.76 431.452 1187.36 432.193C1186.97 432.926 1186.77 433.732 1186.76 434.609V437.332C1186.76 438.474 1186.97 439.455 1187.39 440.273C1187.8 441.082 1188.39 441.705 1189.14 442.139C1189.89 442.565 1190.77 442.778 1191.77 442.778C1192.44 442.778 1193.05 442.685 1193.6 442.497C1194.15 442.301 1194.62 442.016 1195.02 441.641C1195.42 441.266 1195.72 440.801 1195.93 440.247L1200.25 440.733C1199.97 441.875 1199.45 442.872 1198.69 443.724C1197.93 444.568 1196.96 445.224 1195.77 445.693C1194.59 446.153 1193.23 446.384 1191.71 446.384ZM1204.35 446V426.364H1208.84V429.636H1209.05C1209.4 428.503 1210.02 427.629 1210.89 427.016C1211.76 426.393 1212.77 426.082 1213.89 426.082C1214.15 426.082 1214.43 426.095 1214.75 426.121C1215.07 426.138 1215.34 426.168 1215.55 426.21V430.467C1215.36 430.399 1215.05 430.339 1214.62 430.288C1214.2 430.229 1213.8 430.199 1213.41 430.199C1212.56 430.199 1211.8 430.382 1211.13 430.749C1210.47 431.107 1209.94 431.605 1209.56 432.244C1209.17 432.884 1208.98 433.621 1208.98 434.456V446H1204.35Z" fill="white"/>
</g>
</g>
<defs>
<filter id="filter0_f_1_5405" x="232" y="170" width="976" height="524" filterUnits="userSpaceOnUse" color-interpolation-filters="sRGB">
<feFlood flood-opacity="0" result="BackgroundImageFix"/>
<feBlend mode="normal" in="SourceGraphic" in2="BackgroundImageFix" result="shape"/>
<feGaussianBlur stdDeviation="65" result="effect1_foregroundBlur_1_5405"/>
</filter>
<filter id="filter1_dii_1_5405" x="99.8" y="263.8" width="346.4" height="346.4" filterUnits="userSpaceOnUse" color-interpolation-filters="sRGB">
<feFlood flood-opacity="0" result="BackgroundImageFix"/>
<feColorMatrix in="SourceAlpha" type="matrix" values="0 0 0 0 0 0 0 0 0 0 0 0 0 0 0 0 0 0 127 0" result="hardAlpha"/>
<feOffset dy="4"/>
<feGaussianBlur stdDeviation="36.6"/>
<feComposite in2="hardAlpha" operator="out"/>
<feColorMatrix type="matrix" values="0 0 0 0 0.592157 0 0 0 0 0.278431 0 0 0 0 1 0 0 0 0.7 0"/>
<feBlend mode="normal" in2="BackgroundImageFix" result="effect1_dropShadow_1_5405"/>
<feBlend mode="normal" in="SourceGraphic" in2="effect1_dropShadow_1_5405" result="shape"/>
<feColorMatrix in="SourceAlpha" type="matrix" values="0 0 0 0 0 0 0 0 0 0 0 0 0 0 0 0 0 0 127 0" result="hardAlpha"/>
<feOffset dy="1"/>
<feComposite in2="hardAlpha" operator="arithmetic" k2="-1" k3="1"/>
<feColorMatrix type="matrix" values="0 0 0 0 0.721637 0 0 0 0 0.5225 0 0 0 0 1 0 0 0 0.24 0"/>
<feBlend mode="normal" in2="shape" result="effect2_innerShadow_1_5405"/>
<feColorMatrix in="SourceAlpha" type="matrix" values="0 0 0 0 0 0 0 0 0 0 0 0 0 0 0 0 0 0 127 0" result="hardAlpha"/>
<feMorphology radius="1" operator="erode" in="SourceAlpha" result="effect3_innerShadow_1_5405"/>
<feOffset dy="-7"/>
<feGaussianBlur stdDeviation="9.5"/>
<feComposite in2="hardAlpha" operator="arithmetic" k2="-1" k3="1"/>
<feColorMatrix type="matrix" values="0 0 0 0 0.744787 0 0 0 0 0.63375 0 0 0 0 0.9 0 0 0 0.32 0"/>
<feBlend mode="normal" in2="effect2_innerShadow_1_5405" result="effect3_innerShadow_1_5405"/>
</filter>
<filter id="filter2_d_1_5405" x="224.636" y="419.46" width="96.7723" height="28.9361" filterUnits="userSpaceOnUse" color-interpolation-filters="sRGB">
<feFlood flood-opacity="0" result="BackgroundImageFix"/>
<feColorMatrix in="SourceAlpha" type="matrix" values="0 0 0 0 0 0 0 0 0 0 0 0 0 0 0 0 0 0 127 0" result="hardAlpha"/>
<feOffset dy="2"/>
<feComposite in2="hardAlpha" operator="out"/>
<feColorMatrix type="matrix" values="0 0 0 0 0 0 0 0 0 0 0 0 0 0 0 0 0 0 0.25 0"/>
<feBlend mode="normal" in2="BackgroundImageFix" result="effect1_dropShadow_1_5405"/>
<feBlend mode="normal" in="SourceGraphic" in2="effect1_dropShadow_1_5405" result="shape"/>
</filter>
<filter id="filter3_bdi_1_5405" x="575" y="290" width="288" height="285" filterUnits="userSpaceOnUse" color-interpolation-filters="sRGB">
<feFlood flood-opacity="0" result="BackgroundImageFix"/>
<feGaussianBlur in="BackgroundImageFix" stdDeviation="5"/>
<feComposite in2="SourceAlpha" operator="in" result="effect1_backgroundBlur_1_5405"/>
<feColorMatrix in="SourceAlpha" type="matrix" values="0 0 0 0 0 0 0 0 0 0 0 0 0 0 0 0 0 0 127 0" result="hardAlpha"/>
<feOffset dy="4"/>
<feComposite in2="hardAlpha" operator="out"/>
<feColorMatrix type="matrix" values="0 0 0 0 0.592157 0 0 0 0 0.278431 0 0 0 0 1 0 0 0 0.41 0"/>
<feBlend mode="normal" in2="effect1_backgroundBlur_1_5405" result="effect2_dropShadow_1_5405"/>
<feBlend mode="normal" in="SourceGraphic" in2="effect2_dropShadow_1_5405" result="shape"/>
<feColorMatrix in="SourceAlpha" type="matrix" values="0 0 0 0 0 0 0 0 0 0 0 0 0 0 0 0 0 0 127 0" result="hardAlpha"/>
<feOffset dy="4"/>
<feGaussianBlur stdDeviation="22.65"/>
<feComposite in2="hardAlpha" operator="arithmetic" k2="-1" k3="1"/>
<feColorMatrix type="matrix" values="0 0 0 0 0.8375 0 0 0 0 1 0 0 0 0 0.9025 0 0 0 0.25 0"/>
<feBlend mode="normal" in2="shape" result="effect3_innerShadow_1_5405"/>
</filter>
<filter id="filter4_d_1_5405" x="646.21" y="365.807" width="146.322" height="19.9489" filterUnits="userSpaceOnUse" color-interpolation-filters="sRGB">
<feFlood flood-opacity="0" result="BackgroundImageFix"/>
<feColorMatrix in="SourceAlpha" type="matrix" values="0 0 0 0 0 0 0 0 0 0 0 0 0 0 0 0 0 0 127 0" result="hardAlpha"/>
<feOffset dy="2"/>
<feComposite in2="hardAlpha" operator="out"/>
<feColorMatrix type="matrix" values="0 0 0 0 0 0 0 0 0 0 0 0 0 0 0 0 0 0 0.25 0"/>
<feBlend mode="normal" in2="BackgroundImageFix" result="effect1_dropShadow_1_5405"/>
<feBlend mode="normal" in="SourceGraphic" in2="effect1_dropShadow_1_5405" result="shape"/>
</filter>
<filter id="filter5_dii_1_5405" x="650.818" y="401.5" width="60.1818" height="62" filterUnits="userSpaceOnUse" color-interpolation-filters="sRGB">
<feFlood flood-opacity="0" result="BackgroundImageFix"/>
<feColorMatrix in="SourceAlpha" type="matrix" values="0 0 0 0 0 0 0 0 0 0 0 0 0 0 0 0 0 0 127 0" result="hardAlpha"/>
<feOffset dx="4" dy="4"/>
<feComposite in2="hardAlpha" operator="out"/>
<feColorMatrix type="matrix" values="0 0 0 0 0 0 0 0 0 0 0 0 0 0 0 0 0 0 0.25 0"/>
<feBlend mode="normal" in2="BackgroundImageFix" result="effect1_dropShadow_1_5405"/>
<feBlend mode="normal" in="SourceGraphic" in2="effect1_dropShadow_1_5405" result="shape"/>
<feColorMatrix in="SourceAlpha" type="matrix" values="0 0 0 0 0 0 0 0 0 0 0 0 0 0 0 0 0 0 127 0" result="hardAlpha"/>
<feOffset dx="-3" dy="-5"/>
<feGaussianBlur stdDeviation="2"/>
<feComposite in2="hardAlpha" operator="arithmetic" k2="-1" k3="1"/>
<feColorMatrix type="matrix" values="0 0 0 0 0 0 0 0 0 0 0 0 0 0 0 0 0 0 0.25 0"/>
<feBlend mode="normal" in2="shape" result="effect2_innerShadow_1_5405"/>
<feColorMatrix in="SourceAlpha" type="matrix" values="0 0 0 0 0 0 0 0 0 0 0 0 0 0 0 0 0 0 127 0" result="hardAlpha"/>
<feOffset dx="5" dy="3"/>
<feGaussianBlur stdDeviation="2"/>
<feComposite in2="hardAlpha" operator="arithmetic" k2="-1" k3="1"/>
<feColorMatrix type="matrix" values="0 0 0 0 0.332031 0 0 0 0 0.621765 0 0 0 0 0.9375 0 0 0 1 0"/>
<feBlend mode="normal" in2="effect2_innerShadow_1_5405" result="effect3_innerShadow_1_5405"/>
</filter>
<filter id="filter6_dii_1_5405" x="727" y="401.5" width="61.1818" height="66" filterUnits="userSpaceOnUse" color-interpolation-filters="sRGB">
<feFlood flood-opacity="0" result="BackgroundImageFix"/>
<feColorMatrix in="SourceAlpha" type="matrix" values="0 0 0 0 0 0 0 0 0 0 0 0 0 0 0 0 0 0 127 0" result="hardAlpha"/>
<feOffset dy="4"/>
<feGaussianBlur stdDeviation="2"/>
<feComposite in2="hardAlpha" operator="out"/>
<feColorMatrix type="matrix" values="0 0 0 0 0 0 0 0 0 0 0 0 0 0 0 0 0 0 0.25 0"/>
<feBlend mode="normal" in2="BackgroundImageFix" result="effect1_dropShadow_1_5405"/>
<feBlend mode="normal" in="SourceGraphic" in2="effect1_dropShadow_1_5405" result="shape"/>
<feColorMatrix in="SourceAlpha" type="matrix" values="0 0 0 0 0 0 0 0 0 0 0 0 0 0 0 0 0 0 127 0" result="hardAlpha"/>
<feOffset dx="-3" dy="-5"/>
<feGaussianBlur stdDeviation="2"/>
<feComposite in2="hardAlpha" operator="arithmetic" k2="-1" k3="1"/>
<feColorMatrix type="matrix" values="0 0 0 0 0 0 0 0 0 0 0 0 0 0 0 0 0 0 0.25 0"/>
<feBlend mode="normal" in2="shape" result="effect2_innerShadow_1_5405"/>
<feColorMatrix in="SourceAlpha" type="matrix" values="0 0 0 0 0 0 0 0 0 0 0 0 0 0 0 0 0 0 127 0" result="hardAlpha"/>
<feOffset dx="5" dy="3"/>
<feGaussianBlur stdDeviation="2"/>
<feComposite in2="hardAlpha" operator="arithmetic" k2="-1" k3="1"/>
<feColorMatrix type="matrix" values="0 0 0 0 0.15 0 0 0 0 0.205828 0 0 0 0 0.266667 0 0 0 1 0"/>
<feBlend mode="normal" in2="effect2_innerShadow_1_5405" result="effect3_innerShadow_1_5405"/>
</filter>
<filter id="filter7_d_1_5405" x="626.21" y="480.807" width="185.143" height="19.9489" filterUnits="userSpaceOnUse" color-interpolation-filters="sRGB">
<feFlood flood-opacity="0" result="BackgroundImageFix"/>
<feColorMatrix in="SourceAlpha" type="matrix" values="0 0 0 0 0 0 0 0 0 0 0 0 0 0 0 0 0 0 127 0" result="hardAlpha"/>
<feOffset dy="2"/>
<feComposite in2="hardAlpha" operator="out"/>
<feColorMatrix type="matrix" values="0 0 0 0 0 0 0 0 0 0 0 0 0 0 0 0 0 0 0.25 0"/>
<feBlend mode="normal" in2="BackgroundImageFix" result="effect1_dropShadow_1_5405"/>
<feBlend mode="normal" in="SourceGraphic" in2="effect1_dropShadow_1_5405" result="shape"/>
</filter>
<filter id="filter8_dii_1_5405" x="992.8" y="263.8" width="346.4" height="346.4" filterUnits="userSpaceOnUse" color-interpolation-filters="sRGB">
<feFlood flood-opacity="0" result="BackgroundImageFix"/>
<feColorMatrix in="SourceAlpha" type="matrix" values="0 0 0 0 0 0 0 0 0 0 0 0 0 0 0 0 0 0 127 0" result="hardAlpha"/>
<feOffset dy="4"/>
<feGaussianBlur stdDeviation="36.6"/>
<feComposite in2="hardAlpha" operator="out"/>
<feColorMatrix type="matrix" values="0 0 0 0 0.278431 0 0 0 0 1 0 0 0 0 0.870118 0 0 0 0.7 0"/>
<feBlend mode="normal" in2="BackgroundImageFix" result="effect1_dropShadow_1_5405"/>
<feBlend mode="normal" in="SourceGraphic" in2="effect1_dropShadow_1_5405" result="shape"/>
<feColorMatrix in="SourceAlpha" type="matrix" values="0 0 0 0 0 0 0 0 0 0 0 0 0 0 0 0 0 0 127 0" result="hardAlpha"/>
<feOffset dy="1"/>
<feComposite in2="hardAlpha" operator="arithmetic" k2="-1" k3="1"/>
<feColorMatrix type="matrix" values="0 0 0 0 0.5225 0 0 0 0 1 0 0 0 0 0.7708 0 0 0 0.24 0"/>
<feBlend mode="normal" in2="shape" result="effect2_innerShadow_1_5405"/>
<feColorMatrix in="SourceAlpha" type="matrix" values="0 0 0 0 0 0 0 0 0 0 0 0 0 0 0 0 0 0 127 0" result="hardAlpha"/>
<feMorphology radius="1" operator="erode" in="SourceAlpha" result="effect3_innerShadow_1_5405"/>
<feOffset dy="-7"/>
<feGaussianBlur stdDeviation="9.5"/>
<feComposite in2="hardAlpha" operator="arithmetic" k2="-1" k3="1"/>
<feColorMatrix type="matrix" values="0 0 0 0 0.856667 0 0 0 0 1 0 0 0 0 0.938927 0 0 0 0.7 0"/>
<feBlend mode="normal" in2="effect2_innerShadow_1_5405" result="effect3_innerShadow_1_5405"/>
</filter>
<filter id="filter9_d_1_5405" x="1117.58" y="419.818" width="97.9709" height="35.5455" filterUnits="userSpaceOnUse" color-interpolation-filters="sRGB">
<feFlood flood-opacity="0" result="BackgroundImageFix"/>
<feColorMatrix in="SourceAlpha" type="matrix" values="0 0 0 0 0 0 0 0 0 0 0 0 0 0 0 0 0 0 127 0" result="hardAlpha"/>
<feOffset dy="2"/>
<feComposite in2="hardAlpha" operator="out"/>
<feColorMatrix type="matrix" values="0 0 0 0 0 0 0 0 0 0 0 0 0 0 0 0 0 0 0.25 0"/>
<feBlend mode="normal" in2="BackgroundImageFix" result="effect1_dropShadow_1_5405"/>
<feBlend mode="normal" in="SourceGraphic" in2="effect1_dropShadow_1_5405" result="shape"/>
</filter>
<linearGradient id="paint0_linear_1_5405" x1="720" y1="300" x2="720" y2="564" gradientUnits="userSpaceOnUse">
<stop stop-color="#CF80FF"/>
<stop offset="1" stop-color="#7C4D99"/>
</linearGradient>
<linearGradient id="paint1_linear_1_5405" x1="1078" y1="495.556" x2="348.94" y2="404.014" gradientUnits="userSpaceOnUse">
<stop offset="0.256678" stop-color="#9747FF"/>
<stop offset="1" stop-color="#08E5B2"/>
</linearGradient>
<radialGradient id="paint2_angular_1_5405" cx="0" cy="0" r="1" gradientUnits="userSpaceOnUse" gradientTransform="translate(719 432) rotate(90) scale(124.959)">
<stop offset="0.0685363" stop-color="#059940"/>
<stop offset="0.524158" stop-color="#9E00FF"/>
<stop offset="0.896272" stop-color="#09FF89"/>
</radialGradient>
<radialGradient id="paint3_angular_1_5405" cx="0" cy="0" r="1" gradientUnits="userSpaceOnUse" gradientTransform="translate(719 432) rotate(90) scale(124.959)">
<stop offset="0.0685363" stop-color="#059940"/>
<stop offset="0.524158" stop-color="#9E00FF"/>
<stop offset="0.896272" stop-color="#09FF89"/>
</radialGradient>
<linearGradient id="paint4_linear_1_5405" x1="165.5" y1="424.5" x2="381" y2="425" gradientUnits="userSpaceOnUse">
<stop offset="0.996344" stop-color="#A45EFF"/>
<stop stop-color="#3B2953"/>
</linearGradient>
<linearGradient id="paint5_linear_1_5405" x1="516" y1="431.5" x2="444" y2="431.5" gradientUnits="userSpaceOnUse">
<stop offset="0.373234" stop-color="white"/>
<stop offset="0.821682" stop-color="#999999" stop-opacity="0"/>
</linearGradient>
<linearGradient id="paint6_linear_1_5405" x1="853" y1="593.487" x2="531.345" y2="512.129" gradientUnits="userSpaceOnUse">
<stop stop-color="#CDE1FF"/>
<stop offset="0.1125" stop-color="#CED3FF"/>
<stop offset="0.294792" stop-color="#CFBEFF"/>
<stop offset="0.742708" stop-color="#EABEFF" stop-opacity="0.938052"/>
<stop offset="1" stop-color="#FFBBD4"/>
</linearGradient>
<linearGradient id="paint7_linear_1_5405" x1="853" y1="496.296" x2="576.416" y2="483.347" gradientUnits="userSpaceOnUse">
<stop offset="0.256678" stop-color="#9747FF"/>
<stop offset="1" stop-color="#08E5B2"/>
</linearGradient>
<linearGradient id="paint8_linear_1_5405" x1="719" y1="294" x2="719" y2="572" gradientUnits="userSpaceOnUse">
<stop stop-color="#C4C4C4" stop-opacity="0"/>
<stop offset="1" stop-color="white" stop-opacity="0.47"/>
</linearGradient>
<linearGradient id="paint9_linear_1_5405" x1="743.898" y1="446.936" x2="771.605" y2="419.648" gradientUnits="userSpaceOnUse">
<stop stop-color="#CB4EE8"/>
<stop offset="1" stop-color="#10F4B1"/>
</linearGradient>
<linearGradient id="paint10_linear_1_5405" x1="923" y1="432.5" x2="995" y2="432.5" gradientUnits="userSpaceOnUse">
<stop offset="0.373234" stop-color="white"/>
<stop offset="0.821682" stop-color="#999999" stop-opacity="0"/>
</linearGradient>
<linearGradient id="paint11_linear_1_5405" x1="1058.5" y1="424.5" x2="1282" y2="479" gradientUnits="userSpaceOnUse">
<stop offset="0.00365581" stop-color="#08E5B2"/>
<stop offset="1" stop-color="#309103"/>
</linearGradient>
<linearGradient id="paint12_linear_1_5405" x1="1115" y1="433" x2="1217" y2="433" gradientUnits="userSpaceOnUse">
<stop stop-color="#F0E3FF"/>
<stop offset="1" stop-color="#9945FF"/>
</linearGradient>
<clipPath id="clip0_1_5405">
<rect x="653.818" y="405.5" width="53.1818" height="54" rx="26.5909" fill="white"/>
</clipPath>
<clipPath id="clip1_1_5405">
<rect x="731" y="405.5" width="53.1818" height="54" rx="26.5909" fill="white"/>
</clipPath>
</defs>
</svg>
