<svg width="1245" height="331" viewBox="0 0 1245 331" fill="none" xmlns="http://www.w3.org/2000/svg">
<path d="M434.812 125.139C427.699 121.352 419.096 119.459 409.002 119.459H356.462V251.049H384.622V208.379H408.282C418.522 208.379 427.245 206.519 434.452 202.799C441.388 199.338 447.146 193.904 451.002 187.179C454.918 180.109 456.891 172.129 456.722 164.049C456.884 155.979 454.947 148.006 451.102 140.909C447.325 134.182 441.662 128.707 434.812 125.159V125.139ZM425.092 175.509C423.317 178.86 420.546 181.578 417.162 183.289C413.629 185.149 409.152 186.079 403.732 186.079H384.622V142.199H403.622C409.092 142.199 413.622 143.109 417.152 144.939C420.555 146.583 423.354 149.256 425.152 152.579C426.889 156.153 427.792 160.075 427.792 164.049C427.792 168.023 426.889 171.945 425.152 175.519L425.092 175.509Z" fill="white"/>
<path d="M553.062 199.389C559.912 196.368 565.68 191.335 569.602 184.959C573.422 178.686 575.329 171.179 575.322 162.439C575.322 153.699 573.452 146.169 569.702 139.729C565.89 133.205 560.204 127.979 553.382 124.729C546.242 121.202 537.649 119.436 527.602 119.429H475.062V251.049H503.212V204.399H523.772L548.992 251.049H580.072L551.872 199.909C552.292 199.739 552.702 199.559 553.112 199.369L553.062 199.389ZM503.222 142.199H522.222C526.836 142.05 531.431 142.85 535.722 144.549C539.06 145.901 541.868 148.302 543.722 151.389C545.57 154.754 546.481 158.552 546.362 162.389C546.501 166.18 545.587 169.935 543.722 173.239C541.856 176.251 539.042 178.559 535.722 179.799C531.439 181.375 526.894 182.115 522.332 181.979H503.222V142.199Z" fill="white"/>
<path d="M623.382 196.689H680.382V173.749H623.382V142.389H684.952V119.459H595.222V251.039H685.222V228.109H623.382V196.689Z" fill="white"/>
<path d="M780.342 207.909H778.782L742.102 119.499H707.382V251.039H734.692V165.039H735.802L770.262 250.369H788.872L823.342 165.369H824.442V251.009H851.752V119.459H817.012L780.342 207.909Z" fill="white"/>
<path d="M913.632 119.459L867.632 251.039H897.872L907.742 221.039H955.832L965.692 251.039H995.872L949.962 119.459H913.632ZM914.872 199.319L931.262 149.529H932.262L948.632 199.319H914.872Z" fill="white"/>
<path d="M1089.81 199.389C1096.66 196.368 1102.44 191.336 1106.36 184.959C1110.17 178.686 1112.08 171.179 1112.08 162.439C1112.08 153.699 1110.21 146.169 1106.46 139.729C1102.65 133.205 1096.96 127.979 1090.13 124.729C1083.01 121.202 1074.41 119.436 1064.35 119.429H1011.81V251.049H1039.97V204.399H1060.52L1085.75 251.049H1116.87L1088.58 199.909C1088.99 199.739 1089.41 199.559 1089.81 199.369V199.389ZM1039.97 142.199H1058.97C1063.58 142.05 1068.17 142.85 1072.46 144.549C1075.8 145.903 1078.61 148.303 1080.46 151.389C1082.3 154.756 1083.21 158.554 1083.09 162.389C1083.23 166.179 1082.32 169.933 1080.46 173.239C1078.6 176.251 1075.78 178.559 1072.46 179.799C1068.18 181.377 1063.63 182.117 1059.07 181.979H1039.96V142.199H1039.97Z" fill="white"/>
<path d="M1194.15 178.379L1243.57 119.459H1209.87L1161.94 177.459H1160.19V119.459H1132.03V251.039H1160.19V213.649L1173.98 196.909L1210.47 251.009H1244.14L1194.15 178.379Z" fill="white"/>
<path d="M239.162 166.019C251.707 157.972 260.728 145.463 264.402 131.019C267.952 116.709 261.892 112.099 254.592 99.2888C240.772 128.109 216.952 138.799 185.672 145.289C189.762 154.519 194.422 163.539 202.832 169.119C208.362 172.799 214.752 175.459 221.392 175.639C228.032 175.819 233.552 169.579 239.162 166.019Z" fill="#88DDFF"/>
<path d="M222.872 62.909C222.872 62.909 222.102 63.209 220.872 63.559L219.762 63.849L199.682 9.27902C199.479 8.77982 199.379 8.24471 199.388 7.70582C199.397 7.16693 199.514 6.63539 199.734 6.14309C199.953 5.6508 200.27 5.20792 200.664 4.84105C201.059 4.47417 201.524 4.19086 202.031 4.00814C202.538 3.82541 203.077 3.74704 203.615 3.77773C204.153 3.80842 204.679 3.94752 205.162 4.1867C205.645 4.42589 206.075 4.76021 206.426 5.1696C206.776 5.57898 207.04 6.05499 207.202 6.56903L227.652 62.139C226.472 62.3643 225.28 62.5279 224.082 62.629L223.482 62.689L222.872 62.909Z" fill="white"/>
<path d="M277.872 210.349C277.503 210.486 277.115 210.567 276.722 210.589C275.859 210.639 275.002 210.408 274.281 209.93C273.56 209.453 273.013 208.754 272.722 207.939L264.492 185.579L252.872 153.839L251.872 151.099L240.382 119.849L222.552 71.419C223.832 71.079 224.792 70.769 225.362 70.559C227.077 70.3886 228.78 70.1148 230.462 69.739L240.242 96.329L246.312 112.909L246.782 114.179L258.402 145.749L262.112 155.909L269.382 175.669L280.282 205.279C280.627 206.271 280.567 207.359 280.116 208.308C279.665 209.256 278.859 209.99 277.872 210.349Z" fill="white"/>
<path d="M261.072 106.079C258.222 100.359 253.602 96.6589 249.072 96.2189C242.402 95.5689 233.242 95.7989 236.242 102.609C240.822 112.979 265.242 126.399 265.242 126.399C265.242 126.399 266.812 117.609 261.072 106.079Z" fill="#88DDFF"/>
<path d="M247.732 57.4189C245.627 61.4542 242.341 64.751 238.312 66.8689C235.888 68.1548 233.301 69.1068 230.622 69.6989H230.422C228.74 70.0746 227.037 70.3485 225.322 70.5189C224.752 70.7289 223.792 71.0389 222.512 71.3789C219.569 72.1602 216.553 72.636 213.512 72.7989C205.93 73.2865 198.37 71.5486 191.762 67.7989C184.162 63.4289 177.972 56.4589 173.242 46.9689C172.06 44.6152 171.008 42.1982 170.092 39.7289C167 31.2256 164.864 22.4046 163.722 13.4289C163.65 12.9082 163.681 12.3784 163.813 11.8697C163.946 11.361 164.177 10.8834 164.494 10.4641C164.812 10.0449 165.208 9.69216 165.662 9.42618C166.115 9.16019 166.616 8.98612 167.137 8.91389C167.658 8.84166 168.188 8.8727 168.696 9.00523C169.205 9.13776 169.683 9.36919 170.102 9.68631C170.521 10.0034 170.874 10.4 171.14 10.8534C171.406 11.3068 171.58 11.8082 171.652 12.3289C173.252 23.7822 175.805 33.3955 179.312 41.1689C180.522 43.8682 181.939 46.4693 183.552 48.9489C186.606 53.7947 190.754 57.8567 195.662 60.8089C205.072 66.2589 214.882 65.0289 219.762 63.8089L220.872 63.5189C222.152 63.1689 222.872 62.8789 222.872 62.8689L223.432 62.6489L224.032 62.5889C224.622 62.5889 225.202 62.4689 225.762 62.3989L226.172 62.3389L226.742 62.2489C227.032 62.2489 227.322 62.1589 227.602 62.0989C228.042 62.0189 228.472 61.9289 228.892 61.8189L229.182 61.7489C229.612 61.6489 230.022 61.5389 230.422 61.4189C235.272 59.9989 238.642 57.4189 240.632 53.6489C247.632 40.4389 236.312 14.7589 231.382 5.97889C230.861 5.05063 230.73 3.95337 231.018 2.92848C231.306 1.90359 231.989 1.03504 232.917 0.51389C233.845 -0.00726026 234.943 -0.13832 235.967 0.149548C236.992 0.437417 237.861 1.12063 238.382 2.04889C239.182 3.54889 258.122 37.6589 247.732 57.4189Z" fill="white"/>
<path d="M99.6823 254.529C101.212 266.039 93.0823 275.619 80.7623 279.379C68.6023 283.099 54.8423 284.169 45.0623 275.969C49.613 277.116 54.3017 277.62 58.9922 277.469H59.1022C64.069 277.326 68.9937 276.512 73.7422 275.049C74.9822 274.669 76.2122 274.239 77.4122 273.769C87.3222 269.909 95.3722 263.199 99.6823 254.529Z" fill="#83A9FF"/>
<path d="M245.872 218.819C245.872 222.219 243.732 225.599 243.602 228.999C243.402 234.059 242.986 239.096 242.352 244.109C237.122 262.479 226.112 286.389 203.722 314.269C203.492 314.559 203.262 314.859 203.022 315.149C201.392 317.149 199.692 319.209 197.942 321.269C197.062 322.269 196.192 323.349 195.342 324.399C194.772 324.589 194.202 324.759 193.632 324.929C168.573 332.334 141.991 332.914 116.632 326.609L115.822 326.399C115.912 324.249 116.052 322.119 116.212 319.999C116.212 319.849 116.212 319.689 116.212 319.539C119.922 272.839 139.862 235.379 146.112 225.809C142.004 221.331 138.186 216.595 134.682 211.629L134.602 211.509C140.172 212.409 145.862 213.009 151.602 213.379C150.842 214.619 150.042 215.889 149.302 217.129C147.922 219.187 146.923 221.477 146.352 223.889C146.281 224.342 146.265 224.802 146.302 225.259C146.297 225.342 146.297 225.426 146.302 225.509C146.329 225.726 146.376 225.941 146.442 226.149C146.746 227.109 147.375 227.934 148.222 228.479C148.52 228.688 148.834 228.872 149.162 229.029C157.958 233.316 167.367 236.211 177.052 237.609C197.412 240.609 218.672 237.039 235.802 226.309C239.373 224.114 242.743 221.607 245.872 218.819Z" fill="#83A9FF"/>
<path d="M242.322 244.109C237.092 262.479 226.082 286.389 203.692 314.269C203.462 314.559 203.232 314.859 202.992 315.149C201.362 317.149 199.662 319.209 197.912 321.269C197.032 322.269 196.162 323.349 195.312 324.399C194.742 324.589 194.172 324.759 193.602 324.929C168.543 332.334 141.961 332.914 116.602 326.609L115.792 326.399C115.882 324.249 116.022 322.119 116.182 319.999C116.182 319.849 116.182 319.689 116.182 319.539C119.892 272.839 139.832 235.379 146.082 225.809L146.202 225.629C146.223 225.594 146.247 225.561 146.272 225.529L146.392 225.399C146.615 225.212 146.886 225.092 147.174 225.051C147.462 225.011 147.756 225.051 148.022 225.169C148.661 225.4 149.256 225.738 149.782 226.169L157.452 224.389L158.612 224.119L162.432 223.229L162.882 223.119L177.212 219.789L180.572 218.999L182.692 218.509L237.292 205.809H237.372L244.982 204.049L245.662 203.879C245.662 203.879 245.802 204.429 245.982 205.509C246.792 209.969 248.162 223.579 242.322 244.109Z" fill="#6813E2"/>
<path d="M158.082 140.279C158.082 140.279 129.922 96.2788 47.082 108.199C47.082 108.199 86.502 146.199 79.082 181.849L158.082 140.279Z" fill="#6813E2"/>
<path d="M51.872 228.179L54.652 227.419C53.0608 229.595 51.7191 231.943 50.652 234.419L49.8521 233.939C50.5821 232.199 51.252 230.249 51.872 228.179Z" fill="#83A9FF"/>
<path d="M270.272 171.199C270.126 172.702 269.828 174.186 269.382 175.629C268.291 179.004 266.744 182.214 264.782 185.169L264.522 185.579C259.573 193.236 253.318 199.965 246.042 205.459L245.182 206.109L244.782 206.399C239.561 210.213 233.913 213.405 227.952 215.909C227.452 216.119 226.952 216.329 226.462 216.519L226.022 216.699C225.502 216.909 224.972 217.109 224.442 217.299C219.369 219.174 214.119 220.531 208.772 221.349C207.212 221.599 205.632 221.789 204.062 221.939C197.337 222.576 190.556 222.28 183.912 221.059C182.782 220.859 181.642 220.619 180.512 220.349L179.952 220.219C179.073 220.004 178.181 219.847 177.282 219.749C172.266 219.207 167.215 220.381 162.952 223.079L162.582 223.309C161.952 223.719 161.332 224.159 160.732 224.639C160.532 224.786 160.332 224.946 160.132 225.119C160.132 225.119 159.912 225.009 159.572 224.749C159.232 224.489 159.042 224.359 158.682 224.079L158.032 223.569C155.952 221.949 152.612 219.349 149.292 217.119C147.043 215.474 144.589 214.129 141.992 213.119C140.942 212.799 139.832 212.509 138.682 212.259C137.412 211.979 136.092 211.749 134.682 211.579L134.602 211.459C140.172 212.359 145.862 212.959 151.602 213.329C154.732 208.169 157.182 203.279 152.062 200.949C140.812 195.819 90.3021 208.769 78.1121 210.869C70.8721 212.119 63.1121 217.329 57.4721 223.869C55.9521 223.989 54.4721 224.069 53.1621 224.109C57.4821 209.259 61.3221 190.269 64.7321 181.969C66.0654 178.769 67.3988 175.696 68.7321 172.749C69.5188 171.062 70.3288 169.412 71.1621 167.799C73.1246 163.943 75.291 160.194 77.6521 156.569C83.9051 146.84 92.0705 138.485 101.652 132.009L102.782 131.259L103.712 130.649L104.922 129.899C106.692 128.809 108.522 127.759 110.432 126.739C111.022 126.419 111.622 126.109 112.232 125.799C112.842 125.489 113.232 125.259 113.822 124.999L115.012 124.419C115.952 123.969 116.912 123.519 117.882 123.079L120.122 122.079L122.352 121.079C122.465 121.021 122.582 120.97 122.702 120.929C125.322 119.849 127.902 118.849 130.432 117.929C155.692 108.799 176.522 107.929 188.952 108.999C189.892 109.079 190.772 109.169 191.612 109.269L192.832 109.419L193.422 109.509L193.982 109.589L194.562 109.679L195.112 109.769C196.192 109.956 197.142 110.156 197.962 110.369L198.262 110.449C210.482 113.549 215.792 120.989 216.092 121.519C217.393 123.923 218.815 126.259 220.352 128.519L220.462 128.679C220.872 129.279 221.312 129.899 221.782 130.529C222.252 131.159 222.692 131.769 223.202 132.479L224.532 134.319C226.399 136.923 228.594 139.276 231.062 141.319C234.063 143.791 237.439 145.769 241.062 147.179C243.802 148.249 246.992 149.249 250.242 150.379L250.422 150.449L251.892 150.969C252.712 151.259 253.532 151.569 254.342 151.889C257.07 152.917 259.692 154.206 262.172 155.739C267.322 159.209 270.932 163.909 270.272 171.199Z" fill="#88DDFF"/>
<path opacity="0.62" d="M171.492 153.439C174.322 156.439 177.312 159.779 177.632 163.899C177.942 167.799 175.762 171.409 173.632 174.719C170.142 180.229 166.242 186.089 160.142 188.399C156.582 189.749 152.652 189.719 148.862 189.399C143.368 188.891 137.949 187.757 132.712 186.019C128.312 180.809 128.212 171.549 132.512 166.259C134.972 163.259 138.512 161.259 142.122 159.779C150.032 156.439 158.602 154.779 166.252 150.839C173.813 146.861 180.169 140.927 184.654 133.655C189.139 126.384 191.591 118.041 191.752 109.499C192.752 109.609 193.642 109.729 194.492 109.859C195.922 110.079 197.162 110.319 198.202 110.569C197.271 119.266 194.384 127.64 189.759 135.064C185.133 142.488 178.889 148.77 171.492 153.439Z" fill="#6485DF"/>
<path d="M245.722 203.829C245.442 204.589 245.132 205.469 244.782 206.409L244.432 207.349C243.002 211.259 241.432 215.419 239.432 219.589C238.362 221.859 237.182 224.119 235.852 226.349C228.792 238.269 217.762 249.069 198.152 252.499C179.652 255.729 161.362 241.609 149.152 229.069C148.212 228.069 147.302 227.129 146.432 226.189C146.312 226.069 146.202 225.949 146.102 225.829C141.994 221.351 138.176 216.614 134.672 211.649L134.592 211.529C140.162 212.429 145.852 213.029 151.592 213.399C186.152 215.639 221.662 209.189 237.392 205.799H237.472C241.272 204.979 243.912 204.339 245.082 204.039L245.722 203.829Z" fill="white"/>
<path d="M138.602 212.159C139.264 214.77 140.455 217.217 142.102 219.349C146.702 225.719 155.412 231.629 159.102 221.079L159.902 219.189C162.352 223.339 165.172 227.579 169.032 230.509C169.975 231.275 171.091 231.8 172.282 232.039C177.182 231.939 180.042 225.369 180.392 221.039L181.012 214.559L183.592 220.499C186.892 227.639 192.782 231.429 197.762 230.029C201.762 228.449 204.052 223.739 204.422 219.529L204.952 213.529L207.462 219.029C209.462 223.229 213.102 227.759 218.022 228.179C222.692 227.299 224.922 217.469 225.232 210.179C227.482 216.179 229.832 219.259 232.592 219.949C239.722 221.569 243.592 209.549 245.682 203.769C242.872 216.629 235.932 231.549 225.932 215.769C226.352 221.579 223.362 230.219 218.202 230.929C213.322 230.929 209.332 227.859 206.642 223.929C204.732 229.449 200.642 232.489 196.402 232.679C191.152 233.559 186.032 230.039 182.792 225.679C181.112 230.619 177.312 235.199 171.862 234.829C168.442 234.099 166.272 231.759 164.132 229.389C162.639 227.624 161.3 225.734 160.132 223.739C153.332 235.669 139.962 221.999 138.602 212.159Z" fill="#260347"/>
<path opacity="0.62" d="M219.872 128.179C219.872 128.179 227.092 154.279 250.392 150.579C250.362 150.579 235.102 144.369 219.872 128.179Z" fill="#6485DF"/>
<path d="M222.156 164.487C231.066 160.465 234.638 149.117 230.136 139.14C225.633 129.163 214.759 124.335 205.849 128.356C196.939 132.377 193.367 143.725 197.869 153.702C202.372 163.679 213.245 168.508 222.156 164.487Z" fill="white"/>
<path d="M216.595 153.907C220.284 152.245 221.763 147.544 219.9 143.408C218.036 139.272 213.535 137.266 209.846 138.928C206.157 140.59 204.677 145.291 206.541 149.427C208.405 153.563 212.906 155.569 216.595 153.907Z" fill="#260347"/>
<path d="M167.752 153.479L170.812 156.219C173.072 158.236 174.473 161.044 174.726 164.063C174.979 167.082 174.065 170.083 172.172 172.449L163.302 183.539C162.075 185.078 160.482 186.287 158.67 187.055C156.857 187.823 154.882 188.127 152.922 187.939L132.922 186.049C130.42 185.811 128.058 184.784 126.177 183.116C124.297 181.448 122.996 179.225 122.462 176.769L121.302 171.459C120.848 169.382 120.962 167.221 121.63 165.203C122.299 163.185 123.498 161.384 125.102 159.989L132.932 153.169C134.853 151.497 137.263 150.49 139.802 150.299L154.802 149.129C157.143 148.937 159.498 149.224 161.724 149.972C163.951 150.72 166.002 151.913 167.752 153.479Z" fill="#260347"/>
<path d="M68.7222 172.809C96.8722 173.609 120.532 171.279 139.522 165.859C156.995 160.879 170.499 153.299 180.032 143.119C193.352 128.869 194.032 114.119 193.952 109.729C192.472 109.509 190.792 109.299 188.952 109.139C189.062 110.969 189.532 125.739 176.292 139.839C163.392 153.539 134.722 169.279 71.1822 167.839C70.3222 169.479 69.5122 171.119 68.7222 172.809Z" fill="#260347"/>
<path d="M137.732 163.029C140.952 159.559 144.732 157.099 149.732 157.489C150.923 157.598 152.063 158.027 153.032 158.729C154.934 160.209 156.332 162.242 157.032 164.549C157.299 165.155 157.411 165.817 157.358 166.477C157.306 167.136 157.091 167.773 156.732 168.329C156.589 168.61 156.507 168.919 156.491 169.234C156.476 169.55 156.527 169.865 156.642 170.159C157.482 172.159 157.252 172.829 154.982 173.939L153.732 172.549L151.402 174.439L152.712 177.059L150.122 178.419C149.782 177.929 149.482 177.509 149.202 177.059C148.922 176.609 148.682 176.169 148.412 175.699L146.002 176.309C146.232 176.769 146.432 177.199 146.642 177.629L146.212 178.159C144.877 177.597 143.499 177.142 142.092 176.799C136.502 175.909 134.512 166.499 137.732 163.029ZM147.582 167.089C149.002 167.919 150.842 167.159 151.812 165.329C152.036 164.762 152.059 164.135 151.877 163.552C151.695 162.97 151.319 162.468 150.812 162.129C150.046 161.801 149.185 161.769 148.397 162.039C147.608 162.308 146.947 162.861 146.542 163.589C146.29 164.203 146.256 164.886 146.445 165.522C146.634 166.159 147.035 166.712 147.582 167.089ZM141.062 171.179C141.334 171.321 141.634 171.405 141.94 171.424C142.247 171.444 142.554 171.399 142.843 171.293C143.131 171.186 143.394 171.021 143.614 170.806C143.835 170.592 144.008 170.334 144.122 170.049C144.267 169.764 144.35 169.451 144.364 169.132C144.379 168.812 144.326 168.493 144.207 168.196C144.089 167.899 143.909 167.631 143.678 167.409C143.448 167.187 143.173 167.016 142.872 166.909C141.782 166.439 140.612 166.429 139.982 167.799C139.818 168.089 139.716 168.41 139.682 168.741C139.648 169.072 139.683 169.407 139.785 169.725C139.886 170.042 140.052 170.335 140.272 170.585C140.491 170.835 140.761 171.037 141.062 171.179Z" fill="#15FB99"/>
<path d="M152.012 200.999C140.762 195.869 90.2522 208.819 78.0622 210.919C70.8222 212.169 63.0622 217.379 57.4222 223.919C59.3222 223.759 61.3622 223.529 63.5522 223.209C66.0922 222.839 68.8322 222.359 71.7722 221.719C71.9722 221.664 72.1761 221.623 72.3822 221.599L72.1322 221.699L71.7122 221.869L71.2622 222.039C71.2328 222.03 71.2016 222.03 71.1722 222.039L70.4822 222.299C69.8322 222.539 69.0422 222.829 68.1122 223.149L67.1122 223.499L65.6322 223.999L63.4822 224.719L62.4822 225.039L61.7022 225.289L58.4722 226.289L57.4722 226.589C56.5622 226.859 55.6322 227.119 54.6722 227.389C53.0809 229.565 51.7392 231.913 50.6722 234.389L49.8722 233.909C50.5422 232.129 51.2122 230.179 51.8722 228.109C48.5222 228.989 44.8722 229.859 41.0922 230.639C34.764 232.33 28.3477 233.672 21.8722 234.659C19.5855 235.012 17.2888 235.309 14.9822 235.549C11.5822 235.929 8.17217 236.202 4.75217 236.369C3.56636 236.419 2.43858 236.896 1.57669 237.712C0.714802 238.528 0.176912 239.628 0.0621722 240.809C-0.205206 243.943 0.393209 247.091 1.79217 249.909C3.79217 253.819 7.07217 256.909 10.5022 259.689C18.0466 265.716 26.608 270.346 35.7822 273.359C38.5687 274.286 41.4027 275.064 44.2722 275.689C44.1822 278.239 44.1322 280.799 44.1422 283.359C44.9622 284.269 45.8022 285.159 46.6522 286.039C65.4872 305.666 89.4189 319.656 115.762 326.439C115.852 324.289 115.992 322.159 116.152 320.039C116.152 319.889 116.152 319.729 116.152 319.579C119.862 272.879 139.802 235.419 146.052 225.849C141.944 221.371 138.126 216.635 134.622 211.669L134.542 211.549C140.112 212.449 145.802 213.049 151.542 213.419C154.682 208.219 157.132 203.329 152.012 200.999ZM80.7622 279.379C68.6022 283.099 54.8422 284.169 45.0622 275.969C49.613 277.115 54.3016 277.62 58.9922 277.469H59.1022C64.069 277.326 68.9936 276.512 73.7422 275.049C74.9822 274.669 76.2122 274.239 77.4122 273.769C87.3122 269.879 95.3622 263.209 99.6722 254.539C101.212 266.039 93.0822 275.619 80.7622 279.379Z" fill="#88DDFF"/>
<path d="M73.7421 275.049C70.4809 276.552 66.9511 277.385 63.3621 277.499C61.9321 277.499 60.5221 277.499 59.1021 277.499C64.0702 277.346 68.9949 276.522 73.7421 275.049Z" fill="#83A9FF"/>
<path d="M51.872 228.179L54.652 227.419C53.0608 229.595 51.7191 231.943 50.652 234.419L49.8521 233.939C50.5821 232.199 51.252 230.249 51.872 228.179Z" fill="#88DDFF"/>
<path opacity="0.62" d="M80.6522 279.329C70.2122 282.509 58.6522 283.629 49.2622 278.909C47.4734 278.022 45.7952 276.928 44.2622 275.649C45.1222 275.869 45.9922 276.069 46.8722 276.249C50.6795 277.09 54.5739 277.473 58.4722 277.389H58.5822C63.6449 277.242 68.6642 276.407 73.5022 274.909C74.7622 274.529 76.0122 274.089 77.2422 273.609C87.3222 269.659 95.5122 262.879 99.9022 254.069C101.472 265.779 93.1922 275.509 80.6522 279.329Z" fill="#6485DF"/>
<path opacity="0.79" d="M130.392 118.059C126.142 119.579 122.332 121.119 117.852 123.139C99.3322 131.489 87.1022 141.999 77.6122 156.619L76.7922 152.779C95.3622 120.779 122.972 114.779 122.972 114.779L130.392 118.059Z" fill="#5513BC"/>
<path d="M170.072 39.7289C169.202 39.6089 168.342 39.5089 167.472 39.4189C162.343 38.8814 157.189 38.611 152.032 38.6089C71.4222 38.6089 5.87216 104.179 5.87216 184.779C5.85345 202.109 8.93184 219.302 14.9622 235.549C17.2622 235.309 19.5588 235.012 21.8522 234.659C15.7289 218.743 12.5997 201.832 12.6222 184.779C12.6222 107.909 75.1622 45.3589 152.042 45.3589C158.004 45.3586 163.959 45.7394 169.872 46.4989C171.002 46.6389 172.122 46.7989 173.232 46.9689C172.047 44.6154 170.992 42.1985 170.072 39.7289ZM241.152 68.9989C240.212 68.2789 239.272 67.5589 238.312 66.8689C235.888 68.1548 233.301 69.1068 230.622 69.6989C232.195 70.7722 233.739 71.8756 235.252 73.0089C255.146 87.8087 270.732 107.648 280.4 130.481C290.069 153.313 293.47 178.312 290.254 202.898C287.038 227.484 277.32 250.767 262.104 270.344C246.888 289.921 226.724 305.084 203.692 314.269L201.812 315.009C174.713 325.354 145.066 327.01 116.982 319.749L116.192 319.539C90.4614 312.662 67.2368 298.563 49.2622 278.909L49.0622 278.699C48.3922 277.969 47.7322 277.229 47.0622 276.489L47.0022 276.419C46.9585 276.36 46.9118 276.303 46.8622 276.249C45.9822 276.069 45.1122 275.869 44.2522 275.649C41.3827 275.024 38.5487 274.246 35.7622 273.319C38.4288 276.779 41.2155 280.112 44.1222 283.319C44.9422 284.229 45.7822 285.119 46.6322 285.999C65.4671 305.626 89.3989 319.616 115.742 326.399L116.552 326.609C141.911 332.914 168.493 332.334 193.552 324.929C194.122 324.759 194.692 324.589 195.262 324.399C254.872 305.909 298.192 250.309 298.192 184.779C298.19 162.4 293.046 140.321 283.156 120.246C273.266 100.171 258.895 82.6376 241.152 68.9989Z" fill="#15FB99"/>
</svg>
